<svg width="100%" height="226" viewBox="0 0 298 226" xmlns="http://www.w3.org/2000/svg" xmlns:xlink="http://www.w3.org/1999/xlink">
  <title>Group 6</title>
  <defs>
    <path id="a" d="M0 0h296v224.59H0z"/>
    <path id="c" d="M664.634.37H.072V172h664.562z"/>
    <path id="e" d="M676.657 69.262V.622H.229v68.64h676.428z"/>
    <path id="g" d="M0 .832v44.672h654.373V.832H0z"/>
  </defs>
  <g fill="none" fill-rule="evenodd">
    <g transform="translate(1 1)">
      <mask id="b" fill="#fff">
        <use xlink:href="#a"/>
      </mask>
      <g opacity=".1" mask="url(#b)">
        <g transform="translate(-183 -24)">
          <mask id="d" fill="#fff">
            <use xlink:href="#c"/>
          </mask>
          <path d="M279.512.37c-.25 0-.499.003-.75.008-11.426.232-22.842 5.432-34.9 15.906-10.364 9-21 21.76-32.513 39.005-6.069 9.092-11.945 22.033-18.163 35.733-12.949 28.52-27.622 60.845-48.387 66.732-9.275 2.629-18.915-.085-29.465-8.297-12.396-9.647-23.156-24.722-33.56-39.302C60.433 80.263 38.371 49.354.071 59.925l.128.594c37.967-10.481 59.919 20.276 81.15 50.018 10.43 14.613 21.216 29.725 33.675 39.42 10.687 8.319 20.47 11.061 29.907 8.386 21-5.952 35.735-38.408 48.736-67.043 6.207-13.676 12.073-26.595 18.113-35.643C236.399 18.786 257.684 1.415 278.77.989c16.9-.36 33.754 10.994 50.071 33.69 11.477 15.965 19.763 36.43 27.774 56.22 9.575 23.647 19.474 48.096 34.903 65.11 10.385 11.455 21.773 16.803 33.867 15.892 22.989-1.728 42.617-25.37 52.271-39.307 4.645-6.707 9.997-16.468 16.196-27.77 17.995-32.809 42.596-77.665 68.714-77.665.181 0 .36.003.54.008 32.82.783 71.154 49.597 94.056 78.764 2.474 3.146 4.807 6.12 6.926 8.765-.065 2.358-.678 2.489-1.774 2.719-.678.142-1.52.32-2.393 1.087l.333.48c.767-.673 1.508-.83 2.16-.968 1.16-.244 2.161-.454 2.217-3.425l.002-.12-.072-.09a1174.16 1174.16 0 0 1-6.99-8.852c-22.963-29.242-61.393-78.182-94.452-78.97-.183-.004-.37-.007-.553-.007-26.423-.002-51.113 45.018-69.174 77.952-6.19 11.289-11.537 21.037-16.165 27.715-9.597 13.86-29.1 37.361-51.878 39.075-11.928.894-23.18-4.391-33.452-15.718-15.357-16.936-25.234-41.333-34.787-64.926-8.028-19.827-16.327-40.325-27.849-56.352C313.078 11.782 296.341.373 279.512.37" fill="#FEFEFE" mask="url(#d)"/>
        </g>
        <path d="M96.901-17C86.795-17 76.55-13.14 66.074-5.444 54.469 3.09 42.489 16.12 28.372 35.566c-6.14 8.455-12.133 20.15-18.476 32.53C-4.23 95.66-20.238 126.9-42.45 129.569c-8.345.995-16.91-1.893-26.182-8.831-11.689-8.745-22.126-21.759-32.22-34.344-3.444-4.295-7.004-8.737-10.589-12.982-17.48-20.691-38.867-41.917-71.559-31.78l.169.694c32.352-10.031 53.573 11.04 70.925 31.582 3.58 4.235 7.137 8.673 10.579 12.966 10.12 12.618 20.584 25.668 32.34 34.464 9.402 7.034 18.105 9.958 26.605 8.947 22.537-2.71 38.633-34.117 52.832-61.828C16.782 56.1 22.761 44.43 28.868 36.018c14.074-19.385 26.01-32.37 37.555-40.862 27.114-19.923 52.72-13.801 78.282 18.716 11.61 14.765 20.456 33.75 29.012 52.112 10.21 21.915 20.77 44.574 36.209 60.69 10.27 10.724 21.51 15.864 33.377 15.281 20.78-1.021 39.62-19.243 51.764-34.348 5.705-7.092 12.383-17.913 20.116-30.443l.478-.77c17.309-27.928 41.011-66.177 65.623-66.885.321-.007.642-.012.965-.012 31.561 0 67.23 40.125 90.916 66.769 2.921 3.286 5.683 6.393 8.194 9.147.017 2.045-.43 2.154-1.298 2.363-.574.14-1.288.313-2.038 1.029l.415.55c.627-.6 1.227-.748 1.758-.875 1.15-.28 1.848-.639 1.802-3.228l-.005-.147-.092-.104c-2.532-2.775-5.325-5.917-8.282-9.243-23.761-26.729-59.543-66.979-91.375-66.979-.323 0-.65.003-.974.012-24.938.718-48.75 39.137-66.135 67.19l-.477.776c-7.721 12.508-14.388 23.31-20.064 30.369-12.064 15.003-30.76 33.102-51.317 34.112-11.71.568-22.775-4.503-32.915-15.088-15.36-16.032-25.893-38.639-36.078-60.5-8.575-18.399-17.44-37.423-29.099-52.253C129.235-6.894 113.255-17 96.901-17" fill="#FEFEFE"/>
        <path d="M97.604-11C87.361-11 77.068-7.185 66.318.564c-11.176 8.07-22.795 20.064-37.67 38.893-6.17 7.809-12.23 18.26-18.647 29.325-14.772 25.48-31.518 54.357-53.828 55.927-8.211.564-16.589-2.307-25.604-8.784-10.868-7.811-20.38-18.325-30.448-29.453-4.146-4.584-8.434-9.322-12.789-13.81-18.91-19.488-40.518-36.086-70.332-25.688l.22.79c29.457-10.273 50.867 6.188 69.613 25.508 4.345 4.478 8.628 9.213 12.769 13.79 10.098 11.162 19.634 21.704 30.57 29.562 9.151 6.575 17.674 9.49 26.047 8.914 22.679-1.597 39.533-30.66 54.402-56.303C17.022 58.196 23.069 47.77 29.2 40.006 44.03 21.238 55.6 9.288 66.718 1.263c26.491-19.099 51.743-14.074 77.2 15.367 11.81 13.66 21.257 31.296 30.392 48.35 10.815 20.191 21.999 41.072 37.42 56.29 13.681 13.5 28.921 17.75 45.29 12.629 12.321-3.854 25.416-13.08 38.916-27.416 6.428-6.824 14.381-18.067 21.33-28.07l2.488-3.558c17.93-25.677 40.246-57.63 63.248-59.47 31.141-2.481 66.865 32.71 90.5 56.004 3.105 3.059 6.041 5.954 8.746 8.548.092 1.744-.188 1.826-.835 2.016-.446.13-1.059.308-1.681.978l.511.6c.485-.52.948-.655 1.356-.776.958-.282 1.528-.626 1.376-3.05l-.01-.173-.118-.113c-2.734-2.618-5.71-5.55-8.858-8.654-23.727-23.384-59.573-58.728-91.04-56.207-23.328 1.867-45.756 33.98-63.776 59.786l-2.488 3.558c-6.935 9.979-14.866 21.194-21.255 27.979-31.38 33.321-59.375 38.288-83.21 14.767-15.337-15.133-26.492-35.959-37.277-56.095-9.155-17.094-18.623-34.772-30.498-48.501-13.58-15.707-26.759-24.386-40.29-26.532a41.7 41.7 0 0 0-6.552-.52" fill="#FEFEFE"/>
        <path d="M99.083-4C88.616-4 78.125-.191 67.18 7.556 53.798 17.04 40.675 31.462 29.6 44.315c-6.127 7.11-12.169 16.277-18.565 25.984-15.463 23.46-32.99 50.053-55.45 50.498-8.063.145-16.238-2.713-24.99-8.739-9.873-6.798-18.709-15.41-28.065-24.524-5.013-4.888-10.2-9.94-15.538-14.664-18.981-16.792-40.477-30.787-68.993-19.585l.277.886c28.135-11.055 49.404 2.81 68.198 19.435 5.324 4.712 10.501 9.758 15.51 14.635 9.382 9.144 18.241 17.777 28.175 24.616 8.889 6.123 17.216 9.021 25.441 8.88 22.872-.456 40.528-27.244 56.107-50.88 6.38-9.68 12.407-18.824 18.493-25.89C41.24 32.155 54.32 17.783 67.624 8.35c26.205-18.544 50.354-14.726 76.002 12.018 12.092 12.608 22.176 28.969 31.927 44.79 11.334 18.391 23.055 37.41 38.37 51.657 13.398 12.466 28.312 16.746 44.327 12.719 12.024-3.024 24.715-10.62 38.8-23.22 6.886-6.158 15.005-16.05 22.038-24.917 1.754-2.21 3.538-4.483 5.348-6.79 18.194-23.19 38.814-49.474 60.406-52.368C415.744 18.1 449.924 47.21 474.88 68.47c2.9 2.473 5.642 4.808 8.229 6.96.161 1.457.002 1.517-.393 1.666-.347.133-.825.31-1.316.937l.624.623c.347-.438.658-.556.96-.669.898-.342 1.175-.828.932-2.877l-.024-.195-.142-.12c-2.625-2.181-5.411-4.558-8.366-7.073-23.43-19.96-54.962-46.818-84.49-46.82-2.063 0-4.112.13-6.15.404-21.908 2.935-42.645 29.364-60.937 52.68a1711.789 1711.789 0 0 1-5.343 6.786c-7.011 8.836-15.097 18.692-21.935 24.807-32.032 28.656-58.876 32.091-82.07 10.513-15.227-14.168-26.916-33.129-38.22-51.469-9.777-15.862-19.885-32.267-32.041-44.944C130.742 5.65 117.778-1.98 104.56-3.653A43.557 43.557 0 0 0 99.083-4" fill="#FEFEFE"/>
        <path d="M100.138 2c-10.78 0-21.534 3.809-32.741 11.573-12.962 9.002-25.652 22.03-37.537 34.603-5.993 6.338-11.92 14.179-18.195 22.482-16.029 21.21-34.169 45.209-56.482 45.209-.325 0-.648-.005-.976-.015-7.926-.267-15.915-3.109-24.42-8.69-8.68-5.693-16.597-12.438-24.98-19.58-6.108-5.207-12.426-10.591-19.06-15.518-18.116-13.458-40.333-25.583-67.747-13.47l.342.974c27.014-11.936 48.973.06 66.889 13.369 6.607 4.91 12.914 10.284 19.01 15.48 8.406 7.16 16.344 13.924 25.073 19.65 8.645 5.672 16.779 8.56 24.866 8.834 23.222.733 41.801-23.867 58.198-45.565 6.258-8.279 12.17-16.1 18.124-22.398 11.85-12.535 24.5-25.524 37.386-34.473 25.6-17.738 49.407-14.98 74.921 8.673 12.516 11.604 22.863 26.108 33.817 41.463 11.764 16.494 23.928 33.55 39.06 46.73 30.294 26.392 61.394 9.095 82.152-6.21 6.01-4.431 13.247-11.344 22.776-21.75 2.898-3.165 5.798-6.43 8.871-9.886 17.323-19.49 36.958-41.583 57.008-45.377 31.316-5.927 65.931 19.087 91.207 37.349 2.148 1.55 4.226 3.053 6.224 4.48.176.968.147 1.209.123 1.269 0-.017-.07.031-.118.058-.232.127-.581.322-.936.892l.767.598c.217-.348.405-.45.583-.55.762-.421.784-.984.456-2.7l-.04-.217-.165-.118c-2.049-1.46-4.18-3-6.386-4.595-22.797-16.468-53.157-38.4-82.03-38.402a52.78 52.78 0 0 0-9.84.902c-20.346 3.85-40.094 26.07-57.516 45.67-3.068 3.454-5.968 6.716-8.861 9.876-9.486 10.358-16.68 17.23-22.639 21.623-20.517 15.132-51.245 32.237-81.063 6.262-15.045-13.107-27.173-30.112-38.905-46.558C166.37 48.546 155.998 34 143.407 22.33 130.086 9.983 117.329 3.397 104.405 2.197A46.953 46.953 0 0 0 100.138 2" fill="#FEFEFE"/>
        <path d="M101.396 8C90.21 8 79.12 11.848 67.588 19.717c-12.585 8.61-25.244 20.831-37.487 32.655-5.716 5.518-11.374 12.038-17.366 18.943C-5.3 92.098-23.954 113.592-47.18 111.646c-7.778-.672-15.582-3.516-23.858-8.698-7.211-4.515-14.198-9.735-20.958-14.784-7.467-5.58-15.191-11.35-23.519-16.435-11.476-7.01-21.794-11.215-31.541-12.853-12.137-2.04-23.565-.261-34.944 5.44l.42 1.066c26.05-13.054 48.726-2.92 65.571 7.37 8.289 5.063 15.994 10.817 23.441 16.38 6.777 5.062 13.783 10.297 21.028 14.833 8.41 5.264 16.353 8.157 24.28 8.841 23.711 1.975 42.533-19.702 60.736-40.678 5.974-6.884 11.618-13.388 17.298-18.872 12.211-11.792 24.84-23.985 37.35-32.543 25.005-17.063 48.468-15.355 73.838 5.373 13.135 10.73 24.333 24.32 36.19 38.709 12.028 14.595 24.466 29.686 39.25 41.761 29.092 23.76 58.65 11.442 81.15-1.945 6.553-3.896 14.246-10.016 23.516-18.705 4.188-3.927 8.395-8.118 12.848-12.553 17.076-17.01 34.731-34.598 53.162-39.161 32.733-8.1 68.694 13.75 94.954 29.704l1.637.995c.125.44.253.91.287 1.117-.14.157-.302.367-.468.773l.943.481c.108-.268.19-.357.27-.444.455-.5.368-.808-.109-2.504l-.065-.225-2.003-1.218c-22.465-13.648-51.996-31.587-80.696-31.589-5.031 0-10.034.551-14.971 1.774-18.694 4.626-36.45 22.315-53.626 39.422-4.446 4.433-8.648 8.619-12.826 12.532-9.214 8.638-16.847 14.711-23.335 18.571-22.238 13.23-51.432 25.414-80.061 2.033-14.704-12.007-27.106-27.057-39.098-41.612-11.893-14.431-23.125-28.06-36.341-38.859-13.154-10.748-25.693-16.329-38.334-17.06a48.437 48.437 0 0 0-2.84-.083" fill="#FEFEFE"/>
        <path d="M102.913 14C91.19 14 79.664 17.868 67.72 25.802c-10.907 7.265-21.56 16.54-32.838 26.36-1.521 1.323-3.05 2.654-4.585 3.985-5.219 4.525-10.382 9.609-15.851 14.99-19.224 18.926-39.1 38.496-63.042 35.238-7.607-1.053-15.227-3.87-23.293-8.611-5.411-3.184-10.724-6.63-15.863-9.964-9.107-5.908-18.525-12.016-29.049-17.037-24.582-11.725-45.91-12.14-65.199-1.267l.509 1.132c18.975-10.694 39.99-10.269 64.247 1.302 10.461 4.99 19.848 11.079 28.925 16.968 5.15 3.34 10.472 6.792 15.905 9.988 8.188 4.812 15.936 7.676 23.68 8.75 24.445 3.316 44.515-16.436 63.927-35.545 5.455-5.37 10.606-10.44 15.798-14.942 1.536-1.33 3.064-2.662 4.588-3.988 11.247-9.793 21.872-19.044 32.72-26.268 24.418-16.223 47.532-15.582 72.744 2.02 14.033 9.798 26.317 22.487 39.324 35.918 12.029 12.424 24.47 25.27 38.653 35.946 12.778 9.617 26.395 13.906 41.627 13.135 14.923-.764 29.111-6.526 38.485-10.795 7.051-3.21 15.208-8.41 24.25-15.454 5.7-4.443 11.419-9.416 17.474-14.685 15.733-13.688 32.004-27.844 48.668-32.921 31.322-9.541 64.517 3.594 95.735 19.25.292.685.477 1.014.578 1.199.01.014.017.029.025.043l-.013.089-.04.29 1.12.178.037-.266c.065-.447.053-.613-.17-1.007-.098-.18-.286-.514-.6-1.276l-.089-.216-.192-.096c-13.408-6.728-29.363-14.205-46.07-18.647-19.091-5.075-35.646-5.324-50.62-.764-16.88 5.142-33.241 19.377-49.063 33.142-6.044 5.257-11.752 10.223-17.426 14.644-8.974 6.992-17.057 12.146-24.03 15.322-23.447 10.677-51.175 18.765-79.055-2.218-14.11-10.622-26.518-23.435-38.515-35.826-13.048-13.474-25.37-26.198-39.493-36.061-12.96-9.046-25.265-13.568-37.618-13.825-.372-.007-.74-.012-1.112-.012" fill="#FEFEFE"/>
        <path d="M105.16 21c-12.458 0-24.754 4-37.069 12.004-9.285 6.05-18.418 13.272-28.084 20.923-3.037 2.401-6.178 4.886-9.304 7.314-4.384 3.406-8.709 7.033-13.29 10.874-20.773 17.416-42.25 35.426-67.287 30.682-7.416-1.423-14.86-4.233-22.758-8.588-3.3-1.82-6.576-3.695-9.746-5.507-11.51-6.584-22.38-12.802-35.657-17.465-24.164-8.484-45.684-6.855-63.965 4.841l.613 1.197c17.97-11.499 39.16-13.087 62.986-4.72 13.176 4.627 24.002 10.818 35.463 17.375 3.173 1.815 6.456 3.692 9.763 5.516 8.004 4.413 15.56 7.264 23.093 8.709 25.56 4.84 47.253-13.345 68.233-30.937 4.572-3.831 8.89-7.451 13.256-10.845 3.129-2.43 6.272-4.918 9.31-7.321 9.644-7.63 18.753-14.838 27.992-20.856 23.54-15.3 47.004-15.722 71.733-1.296 15.369 8.966 29.124 21.039 43.687 33.823 11.642 10.218 23.682 20.787 36.895 29.93 28.277 19.568 57.143 13.813 79.129 6.612 7.618-2.495 16.03-6.636 25.006-12.313 7.556-4.776 15.092-10.53 23.072-16.624 14.068-10.744 28.617-21.853 43.277-27.199 26.69-9.737 57.763-7.119 94.99 7.992.502.794.86 1.07 1.18 1.284.036.024.068.04.097.067 0 0 .016.039.04.135l1.185-.375c-.154-.613-.405-.822-.692-1.014-.19-.125-.447-.296-.905-1.056l-.11-.185-.19-.077c-37.576-15.289-68.97-17.933-95.976-8.083-14.826 5.408-29.45 16.573-43.591 27.372-7.958 6.076-15.473 11.816-22.982 16.563-8.895 5.622-17.22 9.725-24.746 12.189-21.742 7.12-50.273 12.82-78.135-6.461-13.157-9.102-25.168-19.647-36.784-29.843-14.609-12.823-28.407-24.935-43.878-33.96C128.812 24.56 116.912 21 105.16 21" fill="#FEFEFE"/>
        <path d="M108.611 27c-13.365-.002-26.45 4.149-39.498 12.465-7.538 4.816-14.99 10.2-22.88 15.906-4.694 3.392-9.547 6.9-14.412 10.268-2.962 2.053-6.005 4.223-8.948 6.322-22.86 16.3-46.499 33.158-73.203 26.621-7.247-1.787-14.3-4.512-22.198-8.579l-2.997-1.546c-13.582-7.018-26.412-13.646-42.839-17.426-13.539-3.118-39.68-5.835-62.636 10.976l.726 1.25c22.557-16.52 48.304-13.836 61.643-10.764 16.277 3.746 29.04 10.338 42.55 17.32l2.998 1.547c7.987 4.112 15.128 6.87 22.469 8.682 27.239 6.667 51.112-10.36 74.198-26.821a861.078 861.078 0 0 1 8.934-6.31c4.877-3.378 9.735-6.89 14.433-10.285 7.876-5.693 15.313-11.068 22.82-15.865 22.968-14.638 46.072-16.15 70.633-4.623 17.288 8.117 33.056 19.847 49.753 32.267 10.641 7.914 21.646 16.1 33.312 23.477 12.348 7.811 25.361 12.28 39.787 13.665 11.47 1.101 23.973.198 38.232-2.76 8.139-1.692 16.796-4.78 25.72-9.18 9.926-4.895 20.183-11.834 30.101-18.546 11.88-8.037 24.163-16.349 36.383-21.579 36.764-15.735 71.45-10.482 94.13-3.274.7.732 1.252.932 1.664 1.08.294.105.4.151.52.303l.994-.995c-.366-.463-.76-.605-1.107-.73-.359-.128-.73-.263-1.26-.855l-.123-.135-.164-.053c-22.871-7.295-57.94-12.651-95.126 3.264-12.331 5.276-24.667 13.624-36.595 21.695-9.885 6.688-20.104 13.602-29.95 18.457-8.832 4.356-17.388 7.41-25.428 9.078-21.087 4.38-48.904 7.114-77.127-10.733-11.622-7.353-22.606-15.523-33.23-23.425-16.747-12.458-32.57-24.227-49.975-32.399C129.9 29.59 119.168 27 108.611 27" fill="#FEFEFE"/>
        <path d="M112.444 32c-14.65 0-28.845 4.354-42.905 13.097-5.434 3.385-10.812 6.937-16.507 10.7-6.737 4.45-13.7 9.052-20.746 13.336l-1.42.864c-26.02 15.832-52.925 32.204-82.438 23.362-6.785-2.047-13.674-4.763-21.68-8.556-15.223-7.211-28.304-12.887-46.348-14.905-22.68-2.54-45.634 3.853-61.4 17.097l.857 1.283c15.486-13.01 38.066-19.28 60.4-16.786 17.847 1.997 30.824 7.631 45.934 14.787 8.068 3.822 15.018 6.562 21.868 8.628 30.063 9.008 57.223-7.52 83.488-23.501l1.421-.865c7.066-4.298 14.044-8.907 20.79-13.364 5.685-3.756 11.057-7.303 16.474-10.679 22.426-13.947 45.211-16.545 69.657-7.944 20.006 7.041 38.568 18.645 58.222 30.933 8.863 5.543 18.032 11.276 27.45 16.633 22.71 12.917 47.901 17.877 77.014 15.16 8.648-.806 17.554-2.829 26.475-6.012 13.18-4.7 26.58-12.88 39.54-20.787 8.91-5.435 18.12-11.055 27.2-15.517 32.842-16.136 65.15-21.166 93.436-14.549.794.518 1.484.682 2.046.812.396.094.739.175 1.045.363l.683-1.408c-.49-.299-.97-.412-1.436-.523-.55-.13-1.073-.253-1.7-.684l-.107-.072-.12-.029c-28.606-6.728-61.258-1.67-94.422 14.623-9.135 4.489-18.372 10.126-27.307 15.575-12.9 7.874-26.241 16.015-39.293 20.67-8.817 3.147-17.617 5.145-26.159 5.942-28.84 2.688-53.782-2.215-76.249-14.994-9.393-5.343-18.548-11.067-27.401-16.602-19.719-12.329-38.344-23.974-58.488-31.063C130.804 33.678 121.536 32 112.444 32" fill="#FEFEFE"/>
        <path d="M476.732 37c-27.604-.002-54.822 12.803-80.398 27.041-4.582 2.567-9.239 5.292-13.743 7.931-17.196 10.07-34.978 20.483-52.792 24.487a112.692 112.692 0 0 1-26.856 2.815c-25.38-.379-50.706-6.872-75.271-19.299-6.475-3.275-12.94-6.688-19.193-9.988-23.485-12.39-45.666-24.096-69.262-29.613-24.696-5.772-47.472-2.026-69.63 11.46a2236.006 2236.006 0 0 0-7.216 4.424c-9.67 5.948-19.668 12.096-29.93 17.52C7.276 87.075-22.15 100.339-53 89.335c-7.203-2.576-13.567-5.283-21.141-8.55-14.503-6.265-28.029-11.41-46.811-10.857-18.033.523-43.279 6.91-60.048 23.264l1 1.295c16.466-16.057 41.319-22.328 59.086-22.844 18.498-.536 31.877 4.546 46.225 10.743 7.599 3.28 13.984 5.994 21.228 8.584 31.376 11.192 61.126-2.205 86.55-15.637 10.304-5.446 20.326-11.61 30.015-17.57 2.421-1.488 4.826-2.966 7.21-4.418 21.827-13.286 44.263-16.978 68.592-11.29 23.42 5.474 45.523 17.139 68.924 29.486 6.258 3.302 12.73 6.718 19.215 9.998 24.758 12.526 50.288 19.07 75.876 19.45 9.183.128 18.332-.822 27.18-2.848 18.023-4.052 35.904-14.52 53.194-24.646 4.5-2.634 9.151-5.36 13.719-7.916 29.39-16.366 60.954-30.826 92.616-25.874.813.282 1.558.405 2.28.526.583.099 1.137.19 1.67.362l.42-1.65c-.63-.203-1.259-.31-1.866-.41-.68-.114-1.382-.232-2.108-.488l-.123-.03A84.838 84.838 0 0 0 476.732 37" fill="#FEFEFE"/>
        <g transform="translate(-181 32)">
          <mask id="f" fill="#fff">
            <use xlink:href="#e"/>
          </mask>
          <path d="M666.287.623c-27.724-.003-54.268 16.792-80.035 33.093-23.733 15.013-48.273 30.539-73.732 33.114-39.32 3.978-76.242-12.47-111.952-28.376-23.99-10.688-48.798-21.739-73.478-25.946-27.663-4.714-52.548-.212-76.074 13.766-37.472 22.265-81.06 44.525-124.13 26.68a943.515 943.515 0 0 1-7.454-3.131c-19.863-8.4-35.548-15.04-60.438-12.192C37.05 40.139 13.436 51.966.229 67.062l1.157 1.282C14.145 53.76 37.902 41.879 59.158 39.448c24.51-2.802 39.27 3.445 59.702 12.086 2.409 1.019 4.888 2.069 7.463 3.136 43.699 18.103 87.67-4.33 125.453-26.781 51.704-30.72 98.573-9.839 148.194 12.264 35.886 15.987 72.99 32.514 112.697 28.5 25.806-2.612 50.5-18.234 74.38-33.342 28.727-18.173 58.437-36.967 89.384-32.07l.227-1.81a66.182 66.182 0 0 0-10.371-.808" fill="#FEFEFE" mask="url(#f)"/>
        </g>
        <path d="M219.573 36c-30.407-.002-41.161 26.686-50.748 50.474-4.63 11.489-9.004 22.338-15.184 29.158-7.902 8.72-16.634 12.583-25.949 11.485-22.408-2.648-41.464-32.248-46.771-41.255a187.264 187.264 0 0 1-2.095-3.686C73.471 72.591 65.764 58.8 52.832 58.798c-2.143 0-4.428.378-6.871 1.218C36.4 63.3 35.13 70.928 33.903 78.302c-.735 4.42-1.43 8.598-3.827 11.884-4.461 6.113-8.594 9.113-12.636 9.168h-.116c-6.28 0-11.684-7.047-17.405-14.503-7.21-9.402-14.668-19.124-24.836-15.647-5.733 1.96-7.268 6.495-8.755 10.88-1.644 4.851-3.196 9.435-10.52 10.666-12.058 2.027-16.66-6.826-20.722-14.639-.566-1.088-1.101-2.119-1.648-3.103-.258-.46-.516-.927-.776-1.4-4.061-7.362-8.898-16.128-18.288-16.13-2.643 0-5.646.696-9.095 2.309-6.346 2.973-9.332 8.973-12.222 14.773-2.877 5.78-5.596 11.239-11.404 13.99-12.281 5.82-19.58-.647-27.306-7.497-1.641-1.456-3.338-2.959-5.063-4.314-12.465-9.77-22.6-10.904-39.284-9.679l.101 1.698c16.323-1.202 26.222-.106 38.315 9.375 1.692 1.324 3.37 2.814 4.994 4.252 7.731 6.854 15.725 13.942 28.834 7.73 6.285-2.978 9.259-8.949 12.134-14.724 2.892-5.805 5.62-11.29 11.484-14.035 14.511-6.799 20.105 3.342 25.515 13.146.26.474.518.944.779 1.409.535.96 1.063 1.979 1.624 3.057 4.09 7.868 9.18 17.658 22.252 15.462 8.199-1.377 9.985-6.647 11.71-11.742 1.42-4.187 2.76-8.14 7.782-9.86 9.221-3.148 16.353 6.143 23.248 15.13 5.994 7.813 11.655 15.166 18.687 15.096 4.517-.062 9.026-3.264 13.786-9.792 2.644-3.623 3.408-8.212 4.147-12.647 1.196-7.196 2.329-13.99 11.01-16.974 16.08-5.523 25.144 10.702 31.142 21.438.745 1.331 1.446 2.586 2.114 3.72 5.398 9.166 24.806 39.283 47.875 42.008 9.783 1.153 18.929-2.867 27.169-11.963 6.382-7.04 10.811-18.034 15.501-29.67 10.272-25.485 21.917-54.369 58.295-48.754 22.943 3.541 35.917 21.755 48.46 39.37 12.446 17.472 25.314 35.54 47.819 39.082 17.306 2.726 24.507-8.754 31.468-19.855 7.343-11.709 14.28-22.767 32.405-19.127 6.731 1.354 11.966 5.422 17.51 9.732 4.882 3.8 9.928 7.724 16.16 9.737 15.018 4.846 21.744 1.37 31.054-3.443 2.092-1.081 4.252-2.199 6.71-3.337 1.041-.484 1.986-.959 2.904-1.416 4.336-2.167 7.469-3.732 13.855-2.995l.157-1.69c-6.79-.785-10.25.944-14.629 3.132-.906.455-1.844.925-2.866 1.399-2.484 1.15-4.658 2.275-6.762 3.363-9.354 4.832-15.53 8.025-30.003 3.352-5.994-1.934-10.939-5.779-15.72-9.498-5.43-4.223-11.046-8.59-18.102-10.006-2.468-.496-4.746-.728-6.852-.728-14.176-.002-20.71 10.423-27.058 20.547-7.008 11.176-13.624 21.731-30.02 19.15-21.91-3.45-34.024-20.455-46.846-38.461-12.73-17.875-25.896-36.358-49.437-39.994-3.227-.496-6.269-.734-9.132-.734" fill="#FEFEFE"/>
        <path d="M216.482 41c-6.569 0-12.416 1.15-17.475 3.45-15.398 6.997-23.507 22.73-31.345 37.947-5.1 9.898-9.918 19.247-16.515 25.951-7.923 8.055-16.553 11.696-25.64 10.836-18.586-1.77-35.325-22.014-43.649-33.925-.757-1.084-1.567-2.335-2.428-3.658-5.189-7.995-12.644-19.477-24.671-19.477-2.079 0-4.29.34-6.653 1.103-9.461 3.051-11.147 9.655-12.78 16.044-.935 3.667-1.817 7.131-4.149 9.869-12.092 14.21-20.069 5.794-29.308-3.953a240.26 240.26 0 0 0-2.87-2.996c-5.659-5.792-11.482-11.749-18.822-11.749-1.391 0-2.835.213-4.347.683-4.934 1.534-6.947 4.982-8.447 8.095-.246.509-.48 1.022-.713 1.532-1.917 4.186-3.571 7.8-10.48 8.558-8.313.873-13.146-3.49-16.425-7.395-1.777-2.114-3.212-4.392-4.598-6.595a98.576 98.576 0 0 0-1.74-2.704 249.05 249.05 0 0 1-1.03-1.548C-71.99 64.454-76.95 56.97-86.958 57.35c-2.542.103-5.19.722-8.097 1.891-6.27 2.52-9.45 7.688-12.526 12.686-2.221 3.608-4.517 7.34-7.972 9.97a18.003 18.003 0 0 1-3.91 2.273c-12.233 5.228-19.655-.283-27.51-6.12-1.616-1.201-3.29-2.443-4.982-3.56-12.654-8.354-23.191-8.776-39.045-8.484l.024 1.693c15.586-.29 25.94.12 38.252 8.246 1.656 1.095 3.313 2.325 4.911 3.514 7.832 5.816 15.926 11.833 28.887 6.293a19.339 19.339 0 0 0 4.224-2.457c3.69-2.807 6.07-6.672 8.37-10.411 3.074-4.996 5.98-9.714 11.788-12.05 2.76-1.108 5.259-1.696 7.639-1.792 9.208-.369 13.717 6.446 18.084 13.034l1.037 1.556c.562.831 1.12 1.72 1.714 2.66 1.35 2.146 2.881 4.577 4.73 6.78 3.519 4.188 8.705 8.862 17.675 7.92 7.735-.846 9.741-5.23 11.682-9.471.23-.501.459-1.002.7-1.5 1.415-2.933 3.16-5.912 7.52-7.267 8.666-2.694 15.017 3.802 21.74 10.682.962.983 1.91 1.985 2.852 2.98 9.004 9.497 18.314 19.319 31.445 3.888 2.59-3.04 3.566-6.868 4.51-10.57 1.586-6.217 3.085-12.09 11.742-14.883 15.022-4.842 23.492 8.213 29.68 17.741.867 1.338 1.687 2.599 2.459 3.706 8.475 12.13 25.554 32.748 44.711 34.57 9.532.906 18.542-2.886 26.791-11.27 6.773-6.882 11.646-16.343 16.806-26.359 7.714-14.967 15.688-30.444 30.606-37.223 7.668-3.485 17.267-4.236 28.527-2.231 20.89 3.744 34.601 17.813 46.852 31.901l1.158 1.333c13.237 15.241 25.74 29.636 49.256 33.41 2.243.356 4.391.527 6.392.512 12.73-.115 18.883-8.196 24.831-16.01 6.298-8.27 12.806-16.831 27.452-16.114 1.683.081 3.453.285 5.259.604 6.795 1.184 12.111 4.598 17.741 8.213 4.95 3.178 10.07 6.462 16.25 8.064 14.197 3.677 20.992.55 30.398-3.778 1.128-.518 2.298-1.058 3.523-1.602 1.473-.664 2.72-1.205 3.928-1.709.877-.362 1.707-.719 2.502-1.064 4.676-2.026 8.054-3.486 14.084-2.282L478 83.6c-6.45-1.29-10.178.324-14.899 2.366-.788.343-1.608.698-2.481 1.057a143.437 143.437 0 0 0-3.967 1.726c-1.227.547-2.399 1.086-3.534 1.609-9.146 4.207-15.755 7.249-29.478 3.691-5.965-1.543-10.985-4.765-15.839-7.882-5.502-3.533-11.193-7.184-18.262-8.416a43.37 43.37 0 0 0-5.426-.626c-15.38-.733-22.14 8.13-28.671 16.711-5.995 7.87-11.654 15.306-23.688 15.414-1.92.021-4-.151-6.168-.496-23.003-3.69-35.332-17.886-48.384-32.914l-1.16-1.332c-12.427-14.292-26.35-28.567-47.698-32.393-4.176-.743-8.138-1.115-11.863-1.115" fill="#FEFEFE"/>
        <path d="M212.442 46c-5.024 0-9.49.671-13.474 2.013-15.481 5.21-24.377 18.607-32.98 31.562-5.171 7.792-10.521 15.85-17.314 22.27-28.62 27.06-56.652-5.807-65.862-16.605-.873-1.024-1.821-2.256-2.825-3.562-5.91-7.693-14.844-19.318-29.7-14.823-9.35 2.832-11.459 8.42-13.497 13.822-1.124 2.976-2.185 5.788-4.467 8.04-11.412 11.26-19.233 4.666-28.288-2.97-1.406-1.185-2.858-2.41-4.34-3.576l-1.053-.832c-6.72-5.316-13.067-10.341-22.026-7.813-4.687 1.323-6.858 4.17-8.677 6.976-.294.454-.576.911-.856 1.361-2.103 3.413-3.925 6.36-10.466 6.634-7.45.32-12.302-3.476-16.427-7.62-1.872-1.881-3.382-3.842-4.84-5.74-.658-.856-1.28-1.667-1.905-2.424a177.77 177.77 0 0 1-1.266-1.561c-4.439-5.504-9.463-11.76-19.471-11.57-2.55.045-5.184.538-8.052 1.505-6.2 2.093-9.574 6.48-12.835 10.724-2.374 3.088-4.83 6.28-8.387 8.568a20.969 20.969 0 0 1-3.973 2.001c-12.201 4.63-20.1-.151-27.738-4.78-1.585-.96-3.225-1.955-4.875-2.847-11.774-6.373-21.627-6.731-36.542-7.27l-2.258-.082-.048 1.696 2.258.084c14.721.532 24.447.883 35.93 7.099 1.62.878 3.244 1.862 4.816 2.814 7.922 4.8 16.114 9.762 28.942 4.895a22.537 22.537 0 0 0 4.243-2.138c3.782-2.432 6.322-5.737 8.78-8.931 3.264-4.246 6.346-8.256 12.124-10.204 2.733-.924 5.232-1.393 7.639-1.439 9.33-.178 13.894 5.523 18.323 11.012.427.532.849 1.056 1.276 1.573.608.739 1.22 1.538 1.872 2.384 1.42 1.848 3.03 3.943 4.974 5.896 4.363 4.38 9.51 8.398 17.498 8.054 7.299-.308 9.513-3.897 11.655-7.366.273-.44.548-.885.835-1.328 1.724-2.66 3.62-5.145 7.82-6.33 8.286-2.337 14.075 2.248 20.783 7.555l1.057.834c1.46 1.15 2.902 2.367 4.298 3.544 9.186 7.745 17.863 15.06 30.2 2.884 2.543-2.507 3.72-5.63 4.861-8.65 1.986-5.261 3.86-10.23 12.498-12.846 13.935-4.219 22.156 6.48 28.157 14.294 1.018 1.32 1.978 2.571 2.878 3.625 6.416 7.524 16.299 18.173 28.02 23.775 14.306 6.84 27.737 4.47 39.914-7.043 6.925-6.55 12.329-14.685 17.553-22.556 8.846-13.319 17.2-25.9 32.198-30.949 7.461-2.513 16.726-2.585 28.324-.223 20.308 4.185 34.784 16.302 47.87 28.35 14.497 13.35 26.599 23.103 50.376 27.016 2.284.373 4.366.59 6.368.662 12.661.445 18.747-5.862 24.626-11.965 6.286-6.526 12.774-13.27 27.696-12.528 1.674.085 3.46.267 5.297.549 6.79 1.034 12.394 3.918 17.817 6.706 5.063 2.608 10.3 5.302 16.499 6.51 13.33 2.597 20.52-.378 29.621-4.145 1.383-.573 2.815-1.167 4.33-1.766l.589-.23c1.085-.431 2.207-.879 3.387-1.312.648-.238 1.27-.476 1.879-.704 5.12-1.94 8.823-3.34 14.526-1.61l.393-1.64c-6.146-1.862-10.232-.315-15.404 1.64-.603.229-1.223.465-1.87.7-1.191.44-2.325.89-3.418 1.323l-.586.234c-1.522.601-2.962 1.198-4.351 1.772-9.234 3.82-15.906 6.584-28.836 4.063-6.006-1.169-11.151-3.817-16.127-6.377-5.522-2.84-11.231-5.78-18.246-6.848a54.691 54.691 0 0 0-5.432-.56c-15.544-.773-22.28 6.215-28.792 12.977-5.92 6.141-11.509 11.955-23.55 11.513-1.918-.07-4.002-.287-6.197-.645-23.39-3.849-35.326-13.473-49.633-26.645-13.238-12.191-27.894-24.45-48.56-28.712-5.71-1.162-10.876-1.744-15.556-1.744" fill="#FEFEFE"/>
        <path d="M207.677 50c-3.21 0-6.112.28-8.74.843-16.155 3.447-25.797 14.443-36.004 26.08-5.074 5.786-10.323 11.769-16.73 17.38-26.067 22.827-49.717 1.467-62.42-10.01-1.043-.94-2.16-2.117-3.343-3.363-6.052-6.372-14.338-15.096-27.957-11.284-9.213 2.579-11.741 7.06-14.188 11.397-1.303 2.312-2.536 4.494-4.795 6.28-10.602 8.384-18.18 3.45-26.953-2.261-1.976-1.287-4.02-2.617-6.158-3.83-.661-.376-1.315-.756-1.962-1.128-6.399-3.704-12.443-7.205-21.01-5.054-4.396 1.105-6.71 3.383-8.882 5.818-.313.35-.615.7-.91 1.046-2.398 2.795-4.29 5.013-10.559 4.814-7.376-.223-12.402-4.43-16.44-7.808-1.91-1.598-3.525-3.274-4.95-4.756-.768-.794-1.49-1.546-2.209-2.235-.494-.473-.982-.955-1.474-1.44-4.705-4.639-9.572-9.433-19.598-9.484h-.082c-2.534 0-5.126.365-7.922 1.12-6.149 1.653-9.717 5.252-13.168 8.729-2.522 2.54-5.125 5.164-8.776 7.09a25.95 25.95 0 0 1-4.037 1.716c-12.154 4.024-20.185.266-27.95-3.366-1.56-.73-3.178-1.486-4.794-2.163-9.544-3.998-17.996-4.612-28.698-5.39-3.1-.226-6.307-.459-9.843-.792l-.125 1.69c3.547.334 6.761.566 9.87.792 10.575.768 18.931 1.376 28.262 5.287 1.593.667 3.195 1.416 4.742 2.139 8.011 3.75 16.295 7.623 28.966 3.428a27.391 27.391 0 0 0 4.254-1.81c3.85-2.031 6.541-4.742 9.142-7.363 3.463-3.489 6.735-6.785 12.51-8.34 2.707-.728 5.195-1.074 7.644-1.072 9.456.048 14.104 4.63 18.6 9.059.496.49.99.977 1.488 1.455.697.67 1.41 1.409 2.164 2.194 1.455 1.508 3.101 3.217 5.077 4.869 4.209 3.524 9.447 7.908 17.309 8.144 6.932.218 9.246-2.483 11.69-5.335.29-.336.582-.68.889-1.023 2.01-2.252 4.143-4.355 8.143-5.358 8.026-2.015 13.566 1.19 19.982 4.904.65.375 1.306.754 1.972 1.134 2.097 1.193 4.121 2.51 6.08 3.783 8.842 5.755 17.193 11.193 28.59 2.183 2.507-1.983 3.877-4.413 5.202-6.761 2.288-4.053 4.652-8.245 13.274-10.657 12.818-3.59 20.754 4.77 26.55 10.873 1.204 1.268 2.343 2.466 3.4 3.421 12.135 10.96 37.322 33.713 64.34 10.05 6.481-5.678 11.766-11.7 16.874-17.526 10.472-11.94 19.516-22.251 35.208-25.603 7.07-1.507 16.27-.921 28.123 1.796 20.089 4.675 35.394 15.282 47.69 23.802l1.22.843c13.213 9.147 25.145 14.904 50.315 19.13 2.307.384 4.377.648 6.339.804 12.644 1.016 18.394-3.31 24.48-7.887 6.273-4.72 12.762-9.6 27.88-8.825 1.676.084 3.472.25 5.337.487 6.696.857 12.268 3.025 17.658 5.124 5.248 2.043 10.673 4.155 16.983 4.952 12.248 1.551 19.338-1.06 28.311-4.369a255.482 255.482 0 0 1 5.664-2.036l1.05-.362c.955-.332 1.947-.675 2.972-1.006l1.233-.401c5.613-1.827 9.671-3.15 14.98-.88l.543-1.581c-5.786-2.475-10.27-1.016-15.947.835l-1.229.396c-1.035.337-2.036.682-3.001 1.018l-1.045.36c-2.01.692-3.883 1.381-5.692 2.048-8.8 3.244-15.748 5.803-27.668 4.296-6.143-.778-11.25-2.766-16.657-4.87-5.465-2.129-11.121-4.33-17.984-5.207a70.653 70.653 0 0 0-5.439-.497c-15.621-.806-22.317 4.24-28.796 9.111-5.861 4.41-11.4 8.574-23.525 7.604-1.923-.154-3.957-.413-6.223-.79-24.909-4.182-36.699-9.865-49.743-18.895l-1.217-.842c-12.4-8.593-27.831-19.286-48.18-24.023C219.957 50.879 213.345 50 207.677 50" fill="#FEFEFE"/>
        <path d="M202.897 54c-1.246 0-2.432.05-3.567.15-18.472 1.617-28.927 10.705-43.393 23.283-3.662 3.183-7.446 6.472-11.707 9.946-23.627 19.25-44.487 5.82-56.95-2.205-.707-.454-1.384-.891-2.032-1.303-1.193-.757-2.53-1.836-3.946-2.98-5.784-4.68-13.704-11.084-25.994-7.925-9.011 2.315-11.945 5.662-14.779 8.898-1.487 1.695-2.89 3.296-5.177 4.66-9.545 5.695-16.71 2.206-25.008-1.833-2.714-1.322-5.52-2.69-8.564-3.813-.89-.33-1.757-.663-2.61-.99-6.139-2.356-11.938-4.583-20.205-2.763-4.338.96-6.845 2.936-9.055 4.681-.263.207-.518.414-.766.616-2.64 2.13-4.724 3.808-10.846 3.13-6.057-.673-10.473-3.799-14.741-6.823-.571-.404-1.135-.805-1.697-1.195-1.834-1.27-3.41-2.546-4.803-3.671-.967-.784-1.883-1.522-2.774-2.173-.552-.404-1.097-.815-1.644-1.226-4.748-3.573-9.658-7.266-19.716-7.53-2.566-.056-5.165.18-7.939.735-6.122 1.227-9.727 3.936-13.543 6.804-2.646 1.988-5.38 4.044-9.089 5.602a35.318 35.318 0 0 1-4.097 1.433c-12.075 3.418-20.229.702-28.112-1.928a159.766 159.766 0 0 0-4.724-1.52c-7.258-2.161-13.825-2.67-21.43-3.26-5.143-.399-10.462-.81-16.787-1.772l-.202 1.68c6.373.97 11.957 1.402 16.886 1.785 7.524.584 14.025 1.086 21.142 3.207 1.57.469 3.153.995 4.683 1.505 8.08 2.695 16.435 5.481 28.913 1.947 1.49-.42 2.882-.906 4.261-1.488 3.873-1.628 6.681-3.738 9.397-5.782 3.683-2.765 7.159-5.378 12.97-6.542 2.673-.536 5.17-.771 7.638-.709 9.614.25 14.338 3.806 18.905 7.241.555.416 1.104.83 1.66 1.239.864.63 1.763 1.358 2.717 2.13 1.413 1.142 3.013 2.435 4.893 3.738.557.385 1.118.781 1.685 1.183 4.21 2.986 8.985 6.366 15.398 7.078 6.693.743 9.096-1.195 11.878-3.44.248-.2.499-.402.757-.607 2.087-1.646 4.451-3.514 8.474-4.402 7.872-1.735 13.222.32 19.421 2.7.86.332 1.736.669 2.63.998 2.976 1.101 5.75 2.45 8.433 3.758 8.296 4.039 16.134 7.854 26.324 1.774 2.49-1.486 4.042-3.255 5.544-4.97 2.682-3.06 5.456-6.226 14.04-8.43 11.619-2.989 19.218 3.158 24.766 7.644 1.451 1.174 2.823 2.282 4.088 3.085.646.409 1.32.844 2.022 1.296 12.784 8.23 34.174 22.003 58.595 2.106 4.28-3.489 8.076-6.787 11.744-9.98 14.26-12.395 24.563-21.353 42.584-22.93 6.703-.59 15.305.593 27.893 3.827 16.148 4.214 29.404 10.845 41.099 16.697 3.09 1.546 6.008 3.005 8.79 4.32 10.556 4.991 20.498 6.56 35.548 8.936a1037.5 1037.5 0 0 1 14.61 2.38c2.432.416 4.435.717 6.303.95 12.736 1.587 18.433-1.065 24.466-3.87 6.25-2.91 12.721-5.917 27.855-5.124 1.692.089 3.449.228 5.367.43 6.385.666 11.762 2.12 16.96 3.53 5.84 1.58 11.353 3.072 17.957 3.44 10.95.613 18.095-1.762 26.377-4.51 2.393-.796 4.87-1.618 7.57-2.412.446-.132.902-.269 1.365-.408a153.17 153.17 0 0 1 2.699-.791l.537-.15c6.151-1.72 10.598-2.961 15.452-.11l.704-1.502c-5.365-3.15-10.29-1.775-16.522-.034l-.535.149c-.938.26-1.846.534-2.726.798-.463.14-.913.277-1.36.406-2.72.801-5.208 1.628-7.613 2.426-8.149 2.705-15.19 5.04-25.871 4.443-6.464-.36-11.909-1.834-17.677-3.395-5.251-1.423-10.684-2.892-17.175-3.57a102.488 102.488 0 0 0-5.44-.435c-15.478-.81-22.397 2.411-28.505 5.25-6.1 2.84-11.369 5.292-23.719 3.751-1.848-.23-3.83-.529-6.24-.937-5.44-.936-10.32-1.707-14.627-2.385-15.464-2.44-24.796-3.914-35.172-8.819-2.767-1.31-5.679-2.764-8.761-4.308-11.176-5.59-25.083-12.547-41.376-16.8C217.042 55.28 209.192 54 202.897 54" fill="#FEFEFE"/>
        <path d="M190.7 57c-17.638 0-30.052 9.52-48.942 24.007-21.458 16.454-39.786 9.275-51.913 4.522a180.057 180.057 0 0 0-3.73-1.429c-1.45-.528-3.021-1.427-4.844-2.468-5.451-3.115-12.915-7.379-23.767-4.826-8.726 2.053-12.178 4.355-15.226 6.387-1.704 1.137-3.315 2.21-5.714 3.184-8.163 3.314-14.644.983-22.147-1.715-3.725-1.339-7.573-2.724-11.966-3.55a213.233 213.233 0 0 1-2.943-.577c-6.238-1.249-11.624-2.329-19.741-.775-3.742.716-6.24 2.036-8.656 3.314l-.726.38c-3.24 1.704-5.38 2.83-11.63 1.552-4.849-.99-8.752-3.491-12.528-5.913-1.35-.867-2.623-1.683-3.94-2.436a135.85 135.85 0 0 1-4.045-2.428c-1.463-.905-2.724-1.684-3.97-2.339-.584-.305-1.158-.616-1.732-.926-4.805-2.595-9.774-5.278-19.934-5.757a44.725 44.725 0 0 0-7.881.36c-6.187.808-10.032 2.841-14.102 4.994-2.73 1.442-5.55 2.93-9.251 4.122-1.36.44-2.722.819-4.166 1.16-11.992 2.845-20.272 1.169-28.276-.454a206.91 206.91 0 0 0-4.709-.916c-5.207-.929-10.111-1.158-15.3-1.403-6.799-.32-13.827-.65-22.641-2.54l-.28 1.693c8.92 1.915 16.006 2.247 22.858 2.57 5.146.242 10.006.472 15.13 1.385 1.564.279 3.146.599 4.677.91 8.146 1.649 16.57 3.354 28.85.447a55.78 55.78 0 0 0 4.27-1.193c3.816-1.226 6.692-2.749 9.474-4.217 3.957-2.092 7.694-4.066 13.637-4.846 2.645-.346 5.147-.461 7.65-.346 9.851.464 14.678 3.07 19.346 5.59.578.313 1.157.626 1.743.933 1.203.633 2.447 1.4 3.884 2.287 1.203.743 2.565 1.584 4.091 2.456 1.283.733 2.542 1.542 3.875 2.397 3.884 2.492 7.9 5.068 13.002 6.109 6.72 1.373 9.157.09 12.535-1.684l.728-.383c2.322-1.23 4.726-2.498 8.267-3.177 7.862-1.503 13.13-.45 19.228.772.964.193 1.948.391 2.96.582 4.285.806 8.082 2.172 11.754 3.491 7.443 2.678 14.47 5.205 23.112 1.696 2.534-1.029 4.204-2.143 5.972-3.32 3.09-2.06 6.285-4.193 14.767-6.187 10.336-2.431 17.236 1.512 22.781 4.679 1.878 1.073 3.501 2.001 5.06 2.57 1.156.42 2.393.904 3.7 1.418 12.413 4.86 31.17 12.207 53.253-4.726 23.326-17.888 35.478-26.338 56.571-23.017 8.161 1.288 17.176 2.9 27.78 5.97 10.314 3.034 19.902 6.662 28.365 9.863 8.151 3.084 15.854 5.997 22.603 7.763 6.193 1.62 12.252 1.54 19.273 1.447 8.282-.113 17.668-.235 30.783 2.103l2.255.401c1.362.242 2.7.481 4.019.709 13.407 2.294 18.646 1.363 25.276.183 5.903-1.05 12.595-2.24 27.08-1.454 1.63.088 3.4.21 5.408.374 6.36.523 11.754 1.249 16.966 1.95 5.975.801 11.619 1.561 18.227 1.962 9.278.56 16.13-1.784 23.385-4.269 3.336-1.14 6.786-2.321 10.634-3.281.524-.13 1.059-.27 1.604-.41.815-.21 1.651-.428 2.51-.634 6.393-1.53 11.444-2.739 15.782.755l.875-1.407c-4.88-3.931-10.483-2.59-16.968-1.036-.868.208-1.712.428-2.534.64-.543.14-1.073.279-1.594.408-3.903.973-7.382 2.163-10.743 3.313-7.127 2.439-13.861 4.743-22.869 4.198-6.562-.398-12.182-1.153-18.13-1.952-5.232-.704-10.64-1.432-17.034-1.955-2.022-.166-3.804-.29-5.446-.378-14.644-.797-21.412.408-27.386 1.47-6.505 1.159-11.643 2.072-24.817-.183a754.136 754.136 0 0 1-4.011-.706l-2.257-.4c-13.239-2.361-23.105-2.232-31.034-2.126-6.922.092-12.899.17-18.914-1.403-6.681-1.747-13.996-4.515-22.466-7.719-8.484-3.208-18.1-6.846-28.466-9.896-10.679-3.09-19.744-4.713-27.948-6.006-3.053-.48-5.931-.713-8.682-.713" fill="#FEFEFE"/>
        <path d="M179.47 59c-12.05 0-23.859 3.54-40.186 15.118-19.398 13.754-35.412 11.8-47.107 10.372-1.854-.225-3.608-.438-5.228-.57-1.845-.147-3.88-.815-6.237-1.587-5.263-1.721-11.813-3.869-21.011-1.959-7.527 1.563-11.372 2.652-14.461 3.526-2.364.669-4.404 1.247-7.445 1.866-5.622 1.146-10.629-.477-15.93-2.196-5.687-1.847-11.567-3.754-18.857-2.59-3.432.545-6.522.491-9.792.433-3.77-.07-7.667-.138-12.645.648-2.897.458-5.14 1.168-7.308 1.856-.692.218-1.377.436-2.071.64-3.661 1.077-6.133 1.239-11.975-.554-3.743-1.15-7.008-3.134-10.163-5.054-2.151-1.305-4.182-2.54-6.336-3.519l-1.391-.631c-2.793-1.276-5.002-2.282-7.081-2.958-.516-.167-1.025-.336-1.531-.502-5.125-1.692-9.966-3.289-20.423-3.992a64.171 64.171 0 0 0-7.826-.029c-6.48.367-10.706 1.714-15.178 3.142-2.667.85-5.426 1.73-8.897 2.502-1.372.306-2.795.598-4.232.862-11.815 2.197-20.172 1.628-28.254 1.08a292.28 292.28 0 0 0-4.886-.309c-3.526-.188-6.862-.132-10.395-.073-8.086.135-16.45.274-27.267-2.716l-.357 1.68c11.002 3.041 19.463 2.902 27.648 2.765 3.507-.059 6.82-.115 10.301.07 1.63.086 3.244.197 4.867.307 8.164.556 16.605 1.131 28.586-1.097 1.452-.27 2.892-.563 4.281-.874 3.529-.784 6.317-1.673 9.013-2.532 4.58-1.462 8.533-2.723 14.847-3.08a62.47 62.47 0 0 1 7.662.029c10.286.69 15.047 2.262 20.087 3.925.51.169 1.02.338 1.54.504 2.006.652 4.179 1.643 6.933 2.9l1.394.634c2.076.942 4.071 2.155 6.181 3.438 3.232 1.963 6.575 3.993 10.484 5.196 6.133 1.885 8.89 1.697 12.746.56.705-.208 1.397-.426 2.099-.648 2.12-.674 4.314-1.367 7.11-1.81 4.862-.769 8.701-.698 12.413-.632 3.33.059 6.478.113 10.025-.45 6.973-1.112 12.698.744 18.233 2.541 5.475 1.776 10.646 3.453 16.612 2.236 3.09-.632 5.152-1.215 7.542-1.89 3.23-.914 6.888-1.95 14.37-3.502 8.848-1.839 15.208.245 20.318 1.92 2.441.798 4.546 1.489 6.55 1.648 1.595.13 3.334.34 5.174.565 11.911 1.455 28.227 3.446 48.069-10.624 24.428-17.322 38.573-16.32 58.965-12.61 6.012 1.094 13.257 3.444 21.645 6.167 1.898.617 3.856 1.252 5.875 1.896 10.964 3.557 21.44 6.058 30.685 8.261 7.684 1.832 14.94 3.563 21.2 5.6 5.607 1.825 11.387.201 18.083-1.68 8.185-2.299 18.372-5.161 32.03-2.67 1.857.332 3.784.719 6.251 1.253l4.146.898c18.966 4.114 18.966 4.114 41.54 5.348 2.04.11 4.264.233 6.705.368 1.264.07 2.537.144 3.82.22l1.628.096c2.76.159 5.347.335 7.817.501 9.977.676 17.861 1.208 27.761.233 7.655-.754 13.735-2.556 20.17-4.461 4.3-1.276 8.745-2.593 13.81-3.617.595-.12 1.203-.25 1.825-.384.762-.162 1.541-.329 2.337-.485 7.139-1.41 12.08-2.05 15.578 1.758L483 81.026c-4.312-4.692-10.701-3.43-16.88-2.212-.803.16-1.59.329-2.359.493-.615.132-1.218.26-1.808.38-5.123 1.035-9.6 2.362-13.926 3.643-6.374 1.89-12.394 3.67-19.921 4.415-9.792.964-17.625.436-27.542-.238a875.72 875.72 0 0 0-7.829-.502l-1.628-.095c-1.283-.076-2.559-.15-3.825-.22-2.44-.135-4.664-.255-6.702-.368-22.47-1.23-22.47-1.23-41.333-5.32l-4.148-.9c-2.448-.528-4.447-.93-6.292-1.26-13.962-2.545-24.316.362-32.631 2.7-6.753 1.896-12.083 3.397-17.307 1.695-6.312-2.055-13.595-3.79-21.303-5.63-9.22-2.199-19.67-4.691-30.586-8.232-2.019-.644-3.975-1.28-5.87-1.895-8.436-2.738-15.72-5.1-21.822-6.213C192.16 59.972 185.782 59 179.471 59" fill="#FEFEFE"/>
        <path d="M166.837 57c-8.856 0-18.444 2.554-30.024 9.92-17.334 11.027-31.764 13.339-42.302 15.028-2.395.386-4.66.748-6.74 1.174-2.526.515-5.378.237-8.68-.084-4.49-.438-10.075-.985-17.188.25-2.048.352-3.845.682-5.447.975-8.504 1.555-11.37 2.08-17.211.242l-.35-.11c-10.355-3.26-20.137-6.333-35.093-4.15-2.878.421-5.515.867-8.067 1.298-4.208.712-8.558 1.447-14.357 2.145-1.68.203-3.178.448-4.625.682-1.672.274-3.252.53-4.917.688-3.537.34-6.263-.268-12.152-2.71-2.726-1.128-5.26-2.643-7.71-4.107-2.951-1.763-5.738-3.429-8.826-4.478-3.944-1.34-6.533-2.018-8.936-2.341-5.93-.796-10.919-1.303-22.236-2.257-2.693-.223-5.23-.355-7.764-.405-7.966-.153-12.641.477-19.114 1.356-1.74.237-3.602.489-5.687.748-1.394.175-2.822.354-4.299.548-10.946 1.424-18.989 1.934-26.767 2.428-2.19.139-4.347.275-6.528.43-2.213.16-4.423.384-6.56.605-9.088.93-18.485 1.893-30.825-2.2l-.432 1.622c12.62 4.186 22.164 3.206 31.397 2.26 2.125-.218 4.323-.441 6.516-.597 2.176-.156 4.33-.292 6.519-.431 7.8-.496 15.867-1.006 26.856-2.437a953.88 953.88 0 0 1 4.292-.549c2.087-.256 3.954-.51 5.701-.747 6.413-.872 11.045-1.503 18.902-1.344 2.507.05 5.018.18 7.68.4 11.29.951 16.262 1.457 22.168 2.25 2.31.311 4.823.97 8.676 2.278 2.946 1.002 5.67 2.629 8.552 4.352 2.495 1.49 5.074 3.033 7.899 4.202 6.135 2.545 9.006 3.175 12.806 2.81 1.71-.164 3.312-.426 5.006-.701 1.435-.233 2.919-.475 4.57-.673 5.833-.702 10.2-1.44 14.421-2.155 2.661-.45 5.175-.874 8.037-1.293 14.649-2.142 23.84.752 34.487 4.1l.35.112c6.164 1.936 9.35 1.354 17.865-.204 1.6-.292 3.392-.618 5.435-.973 6.931-1.2 12.415-.666 16.823-.234 3.414.33 6.36.618 9.085.062 2.054-.42 4.302-.781 6.683-1.162 10.659-1.709 25.252-4.05 42.837-15.234 23.141-14.72 38.225-9.73 55.69-3.956 1.83.606 3.695 1.224 5.601 1.83 3.829 1.217 8.227 2.888 12.883 4.653 4.338 1.647 9.252 3.51 14.449 5.291 19.122 6.642 37.578 12.4 53.155 9.879 4.119-.666 8.16-2.662 12.84-4.977 9.078-4.488 20.379-10.073 36.98-7.056 1.97.352 4.004.8 6.226 1.366 9.619 2.45 14.869 4.856 19.498 6.98 7.47 3.423 13.37 6.129 32.927 7.212 1.993.11 3.788.191 5.488.249 13.8.462 23.535-.19 35.914-2.401 5.749-1.028 10.878-2.542 15.838-4.009 5.604-1.653 11.4-3.364 18.157-4.394.651-.1 1.322-.211 2.005-.326.718-.12 1.457-.24 2.202-.355 6.943-1.056 12.485-1.528 15.38 2.684L484 80.031c-3.394-4.936-9.353-4.461-16.786-3.33-.756.112-1.499.237-2.225.357-.675.112-1.339.222-1.985.32-6.85 1.045-12.69 2.77-18.34 4.438-4.922 1.455-10.015 2.96-15.69 3.973-12.277 2.192-21.932 2.837-35.63 2.382a253.146 253.146 0 0 1-5.457-.25c-19.296-1.068-25.09-3.726-32.425-7.087-4.685-2.147-9.998-4.582-19.74-7.064a88.878 88.878 0 0 0-6.318-1.387c-17.047-3.096-28.574 2.602-37.836 7.178-4.579 2.265-8.533 4.22-12.444 4.853-15.262 2.465-33.539-3.24-52.492-9.822-5.177-1.775-10.08-3.635-14.405-5.276-4.676-1.776-9.093-3.45-12.958-4.68a465.175 465.175 0 0 1-5.587-1.826C184.579 59.801 176.11 57 166.837 57" fill="#FEFEFE"/>
        <path d="M158.262 52c-7.19 0-15.038 1.968-23.914 7.136C120.06 67.456 108.3 72.93 98.85 77.333c-3.658 1.704-7.112 3.312-10.232 4.861-3.905 1.941-8.373 2.287-14.027 2.724-3.058.235-6.526.503-10.48 1.061-9.281 1.315-13.722-.026-18.42-1.445-1.67-.505-3.399-1.025-5.392-1.453-2.592-.556-5.088-1.358-7.73-2.21-7.914-2.545-16.1-5.18-28.073-1.6-2.126.636-4.079 1.313-5.968 1.966-4.924 1.704-9.574 3.314-16.341 3.892l-.28.024c-3.312.283-6.171.527-9.44.3-3.817-.269-6.863-1.942-11.912-4.714l-.4-.22c-1.784-.98-3.524-2.1-5.206-3.186-3.557-2.29-7.233-4.658-11.37-5.68-3.67-.907-6.566-1.267-9.395-1.163-1.322.048-2.565.125-3.878.21-4.65.292-9.46.597-18.646-.353l-2.585-.263a996.45 996.45 0 0 0-5.119-.52l-2.645-.261c-8.326-.83-13.826-1.376-22.881-1.061-1.448.05-2.916.133-4.364.246-13.276 1.042-22.833 2.925-32.076 4.748l-1.378.27a367.7 367.7 0 0 0-3.548.723c-10.327 2.142-20.077 4.163-33.56-1.199l-.505 1.61c13.865 5.511 24.274 3.355 34.338 1.27 1.175-.245 2.35-.49 3.535-.721l1.379-.273c9.629-1.898 18.725-3.692 31.922-4.726 1.428-.111 2.876-.193 4.305-.244 8.963-.31 14.427.234 22.7 1.056l2.648.261c1.69.167 3.388.341 5.112.52l2.584.263c9.297.96 14.382.64 18.868.358 1.306-.084 2.54-.162 3.845-.208 2.696-.096 5.478.247 9.021 1.122 3.907.967 7.322 3.166 10.94 5.497 1.704 1.097 3.466 2.233 5.295 3.236l.4.22c5.216 2.867 8.365 4.596 12.483 4.883 3.371.237 6.28-.012 9.649-.3l.28-.024c6.933-.594 11.663-2.228 16.669-3.962 1.875-.65 3.815-1.32 5.913-1.945 11.57-3.462 19.55-.892 27.269 1.59 2.674.86 5.2 1.675 7.862 2.243 1.938.416 3.637.931 5.281 1.427 4.849 1.464 9.427 2.845 19.006 1.491 3.91-.554 7.353-.82 10.392-1.054 5.804-.45 10.387-.802 14.536-2.864 3.103-1.543 6.55-3.148 10.199-4.847 9.475-4.412 21.269-9.904 35.614-18.258 22.715-13.227 37.948-5.197 54.075 3.305 3.1 1.634 6.308 3.326 9.552 4.842 1.561.732 3.203 1.515 4.914 2.335 6.499 3.106 13.867 6.63 22.225 9.782 17.31 6.6 37.299 12.5 54.243 6.19 3.717-1.382 7.395-4.169 11.652-7.394 9.265-7.02 20.796-15.748 38.062-12.53a58.34 58.34 0 0 1 6.2 1.515c10.252 3.08 15.34 7.013 20.263 10.815 6.798 5.253 13.223 10.213 32.197 11.293 1.887.11 3.748.172 5.529.189 13.814.155 23.74-2.222 36.25-5.574 3.822-1.025 7.447-2.207 10.954-3.348 7.377-2.403 14.347-4.675 23.055-5.628.714-.08 1.45-.171 2.2-.266.674-.082 1.362-.169 2.057-.246 6.965-.79 12.914-1.056 15.197 3.667l1.33-.815c-2.727-5.646-9.166-5.402-16.679-4.551-.7.08-1.393.166-2.07.251-.746.094-1.473.184-2.182.261-8.846.97-15.883 3.26-23.33 5.688-3.488 1.136-7.096 2.31-10.883 3.326-12.405 3.326-22.244 5.688-35.885 5.53-1.761-.019-3.6-.081-5.466-.188-18.547-1.056-24.51-5.661-31.418-10.996-5.027-3.885-10.225-7.9-20.728-11.054a58.769 58.769 0 0 0-6.345-1.554c-17.864-3.331-29.668 5.612-39.155 12.799-4.166 3.157-7.762 5.881-11.283 7.191-16.52 6.15-36.206.322-53.283-6.188-8.304-3.133-15.641-6.64-22.116-9.737-1.716-.819-3.357-1.605-4.923-2.337-3.213-1.504-6.406-3.186-9.492-4.813-9.77-5.151-19.752-10.409-31.5-10.411" fill="#FEFEFE"/>
        <path d="M152.386 47c-6.088 0-12.679 1.537-19.976 5.297-15.501 7.987-26.9 17.131-36.957 25.2-1.844 1.476-3.626 2.906-5.36 4.266-6.017 4.726-13.042 6.256-23.145 7.3-9.359.971-14.347-1.632-19.63-4.388-1.616-.842-3.287-1.714-5.114-2.503a164.37 164.37 0 0 1-3.433-1.542c-8.879-4.064-18.062-8.266-32.859-1.793-2.143.94-4.084 1.946-5.962 2.919-4.853 2.522-9.438 4.9-16.207 5.223-3.756.177-6.72-.036-9.904-.714-3.503-.746-6.46-2.838-10.202-5.487a217.71 217.71 0 0 0-2.237-1.573c-.907-.628-1.804-1.276-2.698-1.922-4.221-3.052-8.585-6.206-13.888-7.05-3.653-.583-6.688-.568-9.839.046-1.224.24-2.42.524-3.575.798-4.752 1.129-9.662 2.3-19.214 1.155a134.632 134.632 0 0 1-7.625-1.14c-3.505-.62-6.519-1.322-9.436-2.003-5.24-1.222-10.193-2.377-16.786-2.714a59.2 59.2 0 0 0-4.417-.06c-12.577.309-21.933 3.328-30.978 6.25-.863.28-1.724.556-2.584.831l-1.138.364c-10.964 3.514-21.319 6.834-35.646.28L-197 75.6c14.817 6.778 25.417 3.378 36.641-.217l1.136-.364c.863-.277 1.723-.554 2.587-.834 8.953-2.89 18.21-5.88 30.59-6.182 1.43-.036 2.88-.014 4.317.058 6.471.33 11.365 1.472 16.546 2.68 2.933.683 5.966 1.39 9.505 2.017 2.76.488 5.28.863 7.703 1.152 9.792 1.172 14.823-.026 19.69-1.183a85.856 85.856 0 0 1 3.523-.787c2.984-.58 5.873-.592 9.361-.038 4.973.791 9.009 3.708 13.278 6.797.902.652 1.806 1.305 2.722 1.94.779.539 1.517 1.06 2.225 1.562 3.88 2.746 6.943 4.915 10.73 5.72 3.306.705 6.37.928 10.251.744C-9.12 88.328-4.404 85.88.59 83.286c1.856-.963 3.775-1.958 5.878-2.878 14.23-6.228 23.126-2.154 31.728 1.783 1.133.519 2.307 1.057 3.464 1.556 1.777.768 3.423 1.626 5.017 2.455 5.475 2.857 10.646 5.551 20.412 4.542 10.356-1.07 17.584-2.658 23.878-7.601a634.855 634.855 0 0 0 5.372-4.28c10.002-8.02 21.337-17.116 36.708-25.033 23.358-12.037 39.426-.454 54.964 10.743 3.736 2.694 7.266 5.238 10.916 7.482 6.964 4.284 16.316 9.754 26.896 14.05 23.681 9.686 41.232 10.439 55.234 2.373 3.471-1.996 6.914-5.479 10.901-9.512 9.342-9.447 20.969-21.199 38.654-17.876 1.992.373 4.067.923 6.17 1.637 10.363 3.529 15.41 8.986 20.286 14.267 6.753 7.308 13.132 14.212 32.133 15.302 1.878.107 3.75.148 5.56.127 13.08-.173 22.64-3.624 33.707-7.619.933-.337 1.873-.677 2.828-1.018 1.965-.703 3.917-1.437 5.803-2.145 8.92-3.349 17.345-6.51 28.172-7.222.783-.052 1.596-.12 2.425-.186.615-.05 1.242-.103 1.873-.148 6.96-.512 13.346-.548 15.007 4.57l1.425-.573c-2.02-6.22-8.973-6.237-16.53-5.683-.637.048-1.266.1-1.888.151-.82.067-1.625.134-2.401.184-11.03.724-19.547 3.923-28.566 7.308a398.522 398.522 0 0 1-5.783 2.137c-.955.342-1.897.681-2.833 1.019-10.95 3.953-20.404 7.367-33.256 7.537-1.78.024-3.619-.02-5.465-.124-18.433-1.057-24.614-7.746-31.157-14.829-5.005-5.42-10.183-11.02-20.9-14.668a46.376 46.376 0 0 0-6.356-1.688c-18.416-3.46-30.342 8.599-39.925 18.29-3.91 3.954-7.286 7.368-10.579 9.263-13.601 7.834-30.763 7.052-54.018-2.46-10.487-4.255-19.77-9.686-26.687-13.941-3.602-2.216-7.112-4.745-10.824-7.423C177.754 55.173 166.412 47 152.386 47" fill="#FEFEFE"/>
        <path d="M146.853 42c-5.236 0-10.839 1.174-16.883 3.924-13.16 5.984-22.88 17.618-31.454 27.88-2.583 3.09-5.021 6.01-7.484 8.712-6.427 7.049-13.168 10.44-21.855 10.99-9.717.624-15.447-3.588-21.518-8.037-1.357-.997-2.763-2.029-4.213-3l-.096-.065c-9.495-6.361-19.316-12.943-36.707-2.888C4.363 80.833 2.35 82.271.4 83.661c-4.92 3.512-9.177 6.567-15.826 6.473-3.565-.039-6.69-.581-10.13-1.763-3.593-1.232-6.596-3.957-10.073-7.114a195.433 195.433 0 0 0-2.499-2.242l-.275-.242c-4.775-4.19-9.712-8.526-16.342-9.056-3.7-.31-6.873.08-10.281 1.266-1.254.436-2.465.935-3.635 1.414-4.804 1.975-9.772 4.014-19.467 2.675a64.761 64.761 0 0 1-7.564-1.523c-3.924-1.028-7.38-2.338-10.72-3.607-5.127-1.941-9.97-3.778-16.236-4.62-1.493-.2-3-.325-4.476-.369-12.423-.387-21.904 3.939-31.064 8.117-.885.402-1.765.806-2.648 1.2-10.592 4.767-21.546 9.696-36.523 1.775l-.642 1.547c15.57 8.235 26.833 3.169 37.725-1.733.885-.397 1.77-.802 2.655-1.206 9.018-4.113 18.337-8.346 30.456-7.993a42.66 42.66 0 0 1 4.339.358c6.109.823 10.881 2.632 15.932 4.546 3.374 1.278 6.863 2.603 10.86 3.648a64.998 64.998 0 0 0 7.722 1.554c10.055 1.392 15.197-.72 20.17-2.762 1.206-.496 2.344-.963 3.562-1.387 2.168-.755 5.233-1.57 9.727-1.196 6.171.494 10.713 4.481 15.52 8.703l.274.24c.856.75 1.676 1.496 2.48 2.224 3.6 3.268 6.709 6.088 10.585 7.42 3.581 1.227 6.837 1.794 10.554 1.835 7.08.08 11.74-3.234 16.648-6.737 1.922-1.37 3.907-2.789 6.126-4.07 16.646-9.622 25.678-3.57 35.24 2.838l.097.065c1.423.954 2.817 1.975 4.163 2.963 6.005 4.403 12.218 8.957 22.427 8.31 9.077-.576 16.12-4.115 22.827-11.474 2.484-2.726 4.934-5.657 7.53-8.763 8.467-10.135 18.063-21.622 30.916-27.465 24.604-11.189 41.824 4.778 57.019 18.87 3.875 3.594 7.536 6.988 11.224 9.878 8.593 6.735 17.823 12.377 26.69 16.325 23.134 10.337 42.07 9.867 56.282-1.399 3.33-2.64 6.789-7.105 10.45-11.832 9.372-12.101 21.035-27.16 39.044-23.675 1.99.383 4.056.988 6.145 1.796 10.38 4.024 15.363 11.128 20.184 17.998 6.42 9.15 13.057 18.61 32.272 19.746 1.842.11 3.726.13 5.6.066 12.64-.485 22.357-5.072 32.643-9.928 1.396-.66 2.805-1.324 4.233-1.985l.738-.341c10.373-4.8 20.172-9.332 33.253-9.635.921-.024 1.879-.065 2.855-.104l1.493-.06c7.228-.247 13.81-.007 14.86 5.59l1.48-.354c-1.396-7.456-10.06-7.16-16.388-6.945l-1.502.06c-.968.041-1.918.08-2.832.104-13.361.31-23.285 4.9-33.793 9.763l-.738.341c-1.43.661-2.841 1.327-4.243 1.99-10.156 4.793-19.747 9.323-32.107 9.795-1.831.065-3.671.043-5.473-.063-18.53-1.095-24.667-9.84-31.162-19.1-4.956-7.066-10.081-14.37-20.881-18.552-2.166-.84-4.312-1.467-6.382-1.867-18.84-3.655-30.82 11.813-40.44 24.237-3.598 4.647-6.999 9.036-10.18 11.556-13.769 10.915-32.224 11.322-54.853 1.208-8.762-3.9-17.886-9.48-26.385-16.139-3.637-2.85-7.274-6.224-11.125-9.794C176.684 54.09 163.648 42 146.853 42" fill="#FEFEFE"/>
        <path d="M141.64 36c-4.444 0-9.132.837-14.1 2.734-11.475 4.377-19.408 17.49-27.08 30.168-8.617 14.243-16.758 27.696-29.044 27.892-.125.003-.255.003-.38.003-10.202 0-17.15-6.512-23.878-12.81-6.514-6.101-12.802-11.99-21.517-11.992-5.081 0-10.988 2.004-18.248 7.135-2.396 1.694-4.464 3.528-6.464 5.301-6.956 6.172-12.452 11.048-25.884 4.915-3.919-1.788-7.164-5.417-10.597-9.257-5.18-5.794-10.535-11.786-18.738-11.861-6.46-.03-10.542 2.283-14.489 4.55-4.85 2.784-9.866 5.663-19.66 4.147-7.327-1.135-13.118-4.115-18.716-6.997-5.018-2.583-10.21-5.255-16.479-6.596-14.59-3.122-25.416 3.22-35.888 9.355-11.955 7.006-23.25 13.624-38.771 4.357l-.707 1.514c16.221 9.687 27.858 2.867 40.178-4.35 10.24-6.002 20.83-12.21 34.906-9.192 6.09 1.302 11.195 3.93 16.134 6.47 5.697 2.933 11.589 5.965 19.138 7.135 10.264 1.586 15.493-1.412 20.55-4.316 3.962-2.273 7.69-4.42 13.792-4.365 7.586.07 12.718 5.81 17.683 11.364 3.39 3.792 6.893 7.715 11.094 9.631 14.248 6.502 20.338 1.1 27.39-5.157 1.969-1.745 4.005-3.552 6.331-5.197 18.78-13.273 28.114-4.532 37.997 4.724 6.93 6.492 14.096 13.205 24.833 13.205l.412-.003c13.073-.208 21.428-14.018 30.273-28.64 7.53-12.445 15.32-25.315 26.314-29.512 26.235-10.01 43.995 9.886 59.662 27.436 3.814 4.275 7.417 8.31 10.963 11.691 11.958 11.403 26.59 20 40.144 23.589 17.252 4.565 32.344.992 43.643-10.338 3.26-3.27 6.623-8.532 10.184-14.1 10.474-16.383 23.508-36.77 45.392-27.334 10.351 4.461 15.271 13.151 20.029 21.553 6.38 11.269 12.978 22.921 32.464 24.09 15.401.925 27.06-5.895 38.335-12.491 11.026-6.449 22.422-13.116 37.695-13.116.277 0 .555.003.837.008.963.014 1.966.012 2.985.01 7.332-.027 15.642-.035 16.134 6.574l1.508-.143c-.61-8.18-9.649-8.152-17.645-8.144-1.01.002-2.007.007-2.963-.01a51.48 51.48 0 0 0-.863-.007c-15.635 0-27.197 6.763-38.386 13.306-11.605 6.791-22.574 13.215-37.557 12.303-18.709-1.123-24.809-11.897-31.268-23.302-4.89-8.637-9.945-17.567-20.767-22.233-10.223-4.408-19.483-3.059-28.311 4.125-7.552 6.14-13.553 15.526-18.847 23.807-3.51 5.492-6.828 10.679-9.962 13.823-22.733 22.798-58.339 9.098-81.803-13.28-3.501-3.336-7.082-7.348-10.875-11.597C176.35 52.677 161.46 36.002 141.641 36" fill="#FEFEFE"/>
        <path d="M-129.828 65c-7.12 0-14.449 1.184-21.796 3.555-3.3 1.065-7.026 3.12-10.974 5.295-9.198 5.07-19.626 10.818-26.438 4.377l-.964 1.27c7.56 7.145 18.452 1.141 28.062-4.156 3.886-2.141 7.557-4.163 10.73-5.187 14.724-4.752 29.353-4.65 42.305.296 9.135 3.487 16.125 8.724 22.887 13.787 12.973 9.714 24.176 18.108 44.68 8.386 7.055-3.345 13.315-6.898 18.84-10.03C-3.16 71.625 10.81 63.701 38.05 75.133c7.4 3.108 13.573 6.852 19.016 10.157 13.742 8.34 24.598 14.928 45.272 6.73 5.385-2.134 10.168-4.546 14.796-6.876 14.513-7.32 25.977-13.098 44.183-4.608 6.26 2.919 12.254 7.297 18.052 11.535 12.932 9.448 26.305 19.22 43.134 12.941 9.466-3.531 17.355-11.054 24.984-18.33 12.23-11.666 23.784-22.685 40.739-17.12 7.812 2.563 14.858 8.827 21.672 14.883 10.78 9.583 21.93 19.49 36.075 14.31 8.598-3.148 15.02-7.94 20.684-12.168 10.427-7.781 19.43-14.505 38.034-8.657 4.7 1.476 9.073 4.97 13.3 8.348 5.113 4.087 10.402 8.312 16.23 8.826 7.983.704 19.13-7.783 28.089-14.604 2.868-2.182 5.573-4.24 7.689-5.604l-.745-1.44c-2.164 1.392-4.77 3.373-7.783 5.668-8.306 6.321-19.679 14.973-27.134 14.322-5.414-.478-10.303-4.385-15.478-8.52-4.331-3.462-8.81-7.042-13.766-8.6-19.261-6.053-28.532.867-39.266 8.878-5.86 4.371-11.917 8.89-20.32 11.97-13.38 4.9-23.728-4.295-34.68-14.03-6.926-6.157-14.087-12.524-22.18-15.18-17.725-5.816-30.132 6.013-42.131 17.453-7.518 7.173-15.294 14.588-24.485 18.016-16.148 6.023-28.629-3.098-41.845-12.755-5.855-4.278-11.908-8.702-18.295-11.679-18.804-8.769-31.117-2.56-45.372 4.628-4.6 2.316-9.355 4.713-14.68 6.824-20.047 7.95-30.646 1.519-44.06-6.623-5.488-3.33-11.705-7.104-19.204-10.253-9.651-4.05-17.668-5.73-24.842-5.73-13.525 0-24.048 5.97-36.908 13.265-5.77 3.273-11.736 6.659-18.746 9.98-19.758 9.37-30.651 1.21-43.265-8.236-6.522-4.883-13.915-10.42-23.234-13.978-6.766-2.584-13.973-3.876-21.41-3.876" fill="#FEFEFE"/>
        <path d="M-127.182 64c-7.415 0-15.095 1.491-22.983 4.474-3.043 1.151-6.457 3.003-10.074 4.963-10.34 5.608-22.062 11.963-29.793 4.492l-.968 1.287c8.47 8.184 20.655 1.579 31.405-4.25 3.573-1.94 6.95-3.77 9.903-4.886 14.649-5.54 28.543-5.832 41.302-.876 8.928 3.467 15.682 8.705 22.217 13.768 12.159 9.43 22.66 17.574 42.036 9.328 8.115-3.452 15.144-7.335 21.347-10.76 17.57-9.703 31.446-17.37 56.623-8.263 8.24 2.98 14.683 6.858 20.913 10.61 12.68 7.635 23.63 14.228 43.077 7.401 6.278-2.204 11.753-4.987 17.045-7.68 13.496-6.862 25.153-12.79 42.743-4.314 6.11 2.944 11.891 7.116 17.485 11.15 13.594 9.812 26.436 19.077 43.566 12.15 9.174-3.715 16.845-10.634 24.26-17.323 12.439-11.223 24.187-21.82 41.462-16.106 7.485 2.484 14.292 8.387 20.877 14.094 10.552 9.146 21.463 18.6 35.152 13.647 8.407-3.036 14.41-7.357 20.213-11.535 10.077-7.25 18.778-13.513 36.668-9.196 5.407 1.306 10.407 5.026 15.24 8.624 5.767 4.292 11.727 8.73 18.399 9.03 6.838.303 16.051-5.733 24.176-11.061 5.366-3.52 10.433-6.842 13.891-7.715l-.326-1.652c-3.682.93-8.846 4.316-14.313 7.902-7.949 5.214-16.937 11.131-23.37 10.834-6.254-.282-11.783-4.396-17.636-8.751-4.95-3.686-10.067-7.494-15.752-8.866-18.484-4.462-27.424 1.973-37.775 9.423-5.726 4.122-11.645 8.382-19.869 11.35-12.945 4.688-23.073-4.088-33.79-13.379-6.692-5.8-13.613-11.8-21.365-14.374-3.523-1.165-6.82-1.686-9.937-1.686-12.82-.003-22.62 8.839-32.877 18.091-7.318 6.606-14.89 13.435-23.83 17.056-16.447 6.649-28.987-2.402-42.263-11.983-5.644-4.073-11.479-8.284-17.702-11.281-18.194-8.766-30.123-2.699-43.938 4.328-5.253 2.671-10.684 5.433-16.876 7.605-18.85 6.62-29.038.487-41.932-7.28-5.997-3.607-12.794-7.7-21.162-10.726-8.134-2.944-15.113-4.178-21.41-4.178-13.634 0-24.099 5.781-36.32 12.533-6.474 3.574-13.17 7.272-21.22 10.697-18.648 7.934-28.852.022-40.668-9.14-6.305-4.89-13.455-10.43-22.576-13.973A52.838 52.838 0 0 0-127.182 64" fill="#FEFEFE"/>
        <path d="M-124.879 64c-7.596 0-15.515 1.77-23.894 5.315-2.684 1.137-5.662 2.711-8.814 4.38-11.58 6.124-24.7 13.06-33.444 4.626l-.969 1.275c9.474 9.142 23.653 1.645 35.047-4.382 3.125-1.652 6.077-3.214 8.705-4.325 14.616-6.186 27.775-6.853 40.23-2.036 8.715 3.364 15.228 8.49 21.526 13.448 11.341 8.924 21.136 16.632 39.3 10.018 9.264-3.37 16.749-7.35 23.99-11.199 16.458-8.748 29.458-15.657 52.436-8.915 9.086 2.666 16.05 6.783 22.783 10.765 12.132 7.171 22.612 13.365 40.796 7.949 7.068-2.106 13.125-5.175 18.985-8.14 13.118-6.643 24.447-12.378 41.512-4.076 5.923 2.88 11.471 6.747 16.837 10.484 13.653 9.514 26.552 18.5 43.974 11.064 8.787-3.762 16.166-9.897 23.301-15.83 12.682-10.545 24.66-20.503 42.306-14.749 7.143 2.342 13.697 7.737 20.036 12.952 10.31 8.483 20.968 17.256 34.182 12.65 8.228-2.856 14.116-6.871 19.81-10.757 9.73-6.635 18.138-12.367 35.129-9.378 6.221 1.094 11.903 4.962 17.396 8.702 6.327 4.308 12.87 8.763 20.282 9.007.133.005.268.005.398.005 6.267 0 14.196-4.706 21.871-9.263 7.095-4.209 13.806-8.178 18.014-7.693L467 74.23c-4.67-.546-11.565 3.542-18.862 7.876-7.668 4.552-15.6 9.231-21.531 9.062-7.02-.229-13.109-4.375-19.552-8.762-5.619-3.825-11.428-7.783-17.938-8.927-17.534-3.08-26.155 2.796-36.135 9.603-5.616 3.832-11.426 7.794-19.477 10.588-12.5 4.359-22.388-3.784-32.858-12.4-6.443-5.302-13.106-10.783-20.502-13.21-3.764-1.229-7.277-1.775-10.59-1.775-12.834-.002-22.697 8.203-33.018 16.785-7.055 5.867-14.35 11.933-22.944 15.613-16.738 7.14-29.33-1.632-42.66-10.922-5.411-3.771-11.008-7.669-17.032-10.598-17.668-8.596-29.277-2.721-42.715 4.086-5.805 2.939-11.807 5.976-18.754 8.046-17.625 5.252-27.864-.804-39.72-7.812-6.81-4.025-13.85-8.188-23.102-10.902-23.501-6.896-37.379.48-53.45 9.021-7.197 3.825-14.638 7.78-23.811 11.12-17.461 6.358-26.972-1.128-37.984-9.797-6.383-5.025-12.986-10.22-21.898-13.66C-113.16 65.09-118.92 64-124.88 64" fill="#FEFEFE"/>
        <path d="M-122.695 63c-7.7 0-15.784 2.04-24.638 6.153-2.197 1.018-4.586 2.269-7.116 3.589-12.33 6.44-27.676 14.455-37.576 4.952l-.975 1.263c10.634 10.205 26.464 1.934 39.185-4.709 2.514-1.312 4.89-2.554 7.056-3.56 14.649-6.803 27.104-7.81 39.202-3.171 8.516 3.257 14.803 8.28 20.882 13.14 10.547 8.429 19.657 15.712 36.58 10.636 10.516-3.152 18.788-7.437 26.787-11.578C-8.592 72.09 4.12 65.508 24.876 70.152 34.825 72.378 42.3 76.762 49.53 81c11.111 6.516 21.608 12.67 38.577 8.512 7.794-1.908 14.37-5.236 20.732-8.455 12.818-6.49 23.888-12.092 40.541-3.945 5.715 2.795 11.023 6.353 16.156 9.796 13.741 9.219 26.718 17.925 44.48 9.981 8.302-3.73 15.32-9.077 22.106-14.249 13.01-9.914 25.301-19.278 43.46-13.462 6.8 2.197 13.101 7.08 19.195 11.803 10.082 7.812 20.51 15.89 33.265 11.64 8.084-2.678 13.896-6.442 19.514-10.084 9.404-6.09 17.522-11.35 33.542-9.426 6.972.84 13.254 4.878 19.329 8.785 6.844 4.4 13.917 8.948 22.018 8.948.147 0 .294-.002.442-.004 5.924-.122 13.46-4.228 20.749-8.198 8.31-4.528 16.909-9.213 21.8-6.991l.563-1.543c-5.515-2.496-14.019 2.136-23.017 7.04-7.143 3.89-14.528 7.913-20.122 8.027-7.872.158-14.583-4.153-21.685-8.72-6.21-3.994-12.632-8.121-19.917-8.999-16.506-1.98-25.222 3.664-34.452 9.644-5.544 3.592-11.276 7.305-19.191 9.926-12.067 4.022-21.74-3.474-31.984-11.41-6.195-4.8-12.598-9.764-19.635-12.036-18.838-6.033-31.407 3.546-44.716 13.688-6.721 5.122-13.672 10.416-21.823 14.077-17.066 7.635-29.738-.864-43.151-9.862-5.173-3.47-10.52-7.056-16.325-9.895-17.263-8.445-29.162-2.422-41.76 3.953-6.29 3.185-12.795 6.475-20.433 8.348-16.438 4.024-26.227-1.715-37.561-8.36-7.324-4.295-14.897-8.733-25.058-11.007-21.236-4.749-34.153 1.94-49.107 9.685-7.942 4.113-16.154 8.367-26.547 11.482-16.238 4.867-25.082-2.2-35.32-10.382-6.168-4.929-12.544-10.027-21.268-13.362-5.107-1.959-10.274-2.944-15.623-2.944" fill="#FEFEFE"/>
        <path d="M-119.873 63c-9.63 0-18.167 3.58-25.083 7.16-1.519.784-3.116 1.65-4.81 2.564-13.09 7.077-31.013 16.766-42.258 5.74l-.976 1.278c11.983 11.752 30.417 1.785 43.877-5.491 1.687-.912 3.28-1.775 4.786-2.553 14.694-7.604 26.45-8.96 38.12-4.398 8.31 3.238 14.368 8.32 20.227 13.23 9.348 7.84 18.178 15.244 33.786 11.489 11.826-2.845 20.868-7.634 29.612-12.265 13.57-7.188 25.29-13.394 43.804-10.472 10.797 1.706 18.75 6.527 26.44 11.187 10.58 6.415 20.575 12.471 36.355 9.337 8.455-1.68 15.485-5.357 22.284-8.912 12.55-6.566 23.389-12.24 39.676-4.003 5.47 2.764 10.515 6.114 15.392 9.352 13.824 9.184 26.884 17.858 44.981 9.164 7.652-3.695 14.183-8.377 20.497-12.906 14.02-10.05 26.122-18.733 44.935-12.65 6.442 2.105 12.472 6.604 18.304 10.954 9.852 7.348 20.037 14.945 32.326 10.939 8.555-2.769 14.686-5.74 20.615-8.61 8.488-4.114 16.506-7.999 30.655-10.801 8.36-1.654 15.55 3.371 23.165 8.695 6.973 4.874 14.181 9.919 22.481 9.532 5.712-.263 12.93-4.082 19.912-7.777 9.577-5.068 19.485-10.31 24.924-6.067L465 75.32c-6.148-4.789-16.444.661-26.402 5.932-6.847 3.624-13.927 7.37-19.34 7.618-7.852.365-14.858-4.54-21.637-9.281-7.517-5.256-15.292-10.691-24.207-8.922-14.317 2.837-22.413 6.758-30.985 10.91-5.885 2.852-11.973 5.8-20.437 8.538-11.628 3.795-21.088-3.257-31.094-10.723-5.926-4.42-12.053-8.99-18.714-11.168-19.456-6.289-32.417 3.007-46.142 12.848-6.266 4.492-12.747 9.138-20.285 12.78-17.405 8.36-29.566.284-43.643-9.068-4.912-3.262-9.992-6.637-15.538-9.44-16.906-8.547-28.566-2.445-40.912 4.014-6.712 3.51-13.653 7.142-21.914 8.783-15.273 3.034-25.048-2.89-35.394-9.162-7.806-4.73-15.877-9.624-26.94-11.372-18.95-2.995-31.428 3.617-44.64 10.616-8.669 4.592-17.632 9.337-29.289 12.143-14.952 3.595-23.124-3.26-32.59-11.195-5.95-4.988-12.101-10.147-20.628-13.47-4.916-1.92-9.65-2.701-14.142-2.701" fill="#FEFEFE"/>
        <path d="M-118.097 62c-9.252 0-17.61 3.707-25.41 8.007l-1.654.918c-13.916 7.711-34.949 19.361-47.86 6.872l-.979 1.257c13.663 13.216 35.232 1.267 49.503-6.64l1.654-.915c10.958-6.045 23.037-10.895 37.103-5.479 8.121 3.115 13.967 8.11 19.622 12.943 8.614 7.362 16.752 14.316 31.028 11.897 13.193-2.235 22.979-7.48 32.444-12.551 11.915-6.385 23.167-12.42 39.54-11.027 11.646.985 20.055 6.143 28.184 11.13 10.077 6.18 19.593 12.015 34.269 9.88 9.089-1.324 16.538-5.232 23.74-9.008 11.832-6.205 23.006-12.066 39.009-3.997 5.204 2.62 9.974 5.653 14.584 8.586 14.558 9.255 27.13 17.25 45.625 8.06 6.784-3.392 12.663-7.228 18.35-10.94 14.658-9.568 27.319-17.831 47.052-11.617 6.081 1.944 11.842 5.906 17.408 9.74 9.646 6.643 19.617 13.51 31.472 9.877 9.084-2.756 15.597-5.706 21.899-8.557 7.516-3.404 15.288-6.92 27.502-10.113 9.152-2.395 17.045 2.885 25.4 8.47 7.539 5.042 15.32 10.252 24.34 9.657 5.587-.37 12.295-3.745 19.4-7.321 10.76-5.416 21.888-11.017 27.845-4.72L464 75.2c-6.682-7.065-18.277-1.23-29.487 4.413-6.666 3.355-13.56 6.824-18.875 7.177-8.551.557-16.137-4.512-23.483-9.422-8.242-5.512-16.764-11.208-26.507-8.664-12.33 3.222-20.155 6.764-27.724 10.192-6.26 2.832-12.73 5.76-21.732 8.492-11.228 3.442-20.486-2.935-30.29-9.688-5.656-3.893-11.504-7.918-17.788-9.924-20.345-6.41-33.261 2.02-48.215 11.782-5.65 3.688-11.495 7.503-18.204 10.856-17.801 8.849-30.068 1.045-44.274-7.986-4.642-2.952-9.444-6.004-14.708-8.657-16.632-8.385-28.11-2.366-40.26 4.006-7.101 3.724-14.442 7.575-23.299 8.865-14.194 2.068-23.5-3.642-33.355-9.687-8.272-5.072-16.823-10.319-28.79-11.332C.235 64.199-11.195 70.325-23.293 76.81c-9.366 5.02-19.05 10.209-32.022 12.408-13.649 2.308-21.178-4.124-29.895-11.574-5.749-4.912-11.693-9.993-20.044-13.194C-109.73 62.727-114 62-118.097 62" fill="#FEFEFE"/>
        <path d="M-116.313 62c-9.645 0-18.19 4.519-25.733 9.064-18.281 11.019-38.753 20.531-51.972 7.524l-.982 1.27c6.561 6.457 15.649 8.199 27.01 5.181 9.35-2.483 18.717-7.705 26.649-12.486 10.612-6.396 22.14-12.185 36.086-6.728 8.439 3.284 14.35 7.88 20.07 12.321 7.627 5.928 14.833 11.526 27.043 13.418C-40.9 94.24-29.38 87.06-17.186 79.458c8.89-5.54 18.083-11.268 29.88-13.066 12.987-1.976 21.768 4.213 31.061 10.767 8.839 6.229 17.977 12.678 30.942 11.404 9.691-.943 17.524-5.21 25.098-9.333 11.66-6.347 22.676-12.343 38.445-4.169 4.898 2.54 9.372 5.353 13.7 8.074 14.713 9.253 27.425 17.245 46.346 7.233 5.566-2.964 10.508-6.018 15.286-8.974 16.237-10.04 29.06-17.965 50.087-11.305 5.712 1.836 11.182 5.394 16.47 8.833 9.456 6.149 19.234 12.508 30.66 9.135 9.799-2.858 16.514-5.887 23.623-9.096 6.747-3.044 13.725-6.194 23.903-9.425 9.942-3.158 18.523 2.515 27.61 8.52 8.118 5.366 16.51 10.913 26.237 10.08 5.519-.472 12.109-3.759 19.09-7.24 11.882-5.922 24.169-12.047 30.604-3.373L463 76.439c-7.155-9.646-19.965-3.26-32.352 2.915-6.86 3.42-13.336 6.648-18.6 7.1-9.265.792-17.45-4.619-25.37-9.855-8.955-5.918-18.213-12.04-28.768-8.688-10.253 3.257-17.268 6.422-24.053 9.483-7.063 3.187-13.735 6.2-23.445 9.03-10.835 3.2-19.922-2.709-29.538-8.964-5.367-3.49-10.917-7.1-16.81-8.994-21.615-6.852-34.674 1.225-51.209 11.448-4.758 2.942-9.68 5.986-15.204 8.926-18.23 9.646-30.629 1.848-44.986-7.18-4.35-2.735-8.851-5.566-13.803-8.132-16.406-8.506-27.728-2.343-39.716 4.182-7.454 4.057-15.16 8.253-24.577 9.173-12.468 1.222-21.394-5.072-30.023-11.157-9.109-6.423-18.53-13.064-32.052-11.005C.42 66.56-8.897 72.364-17.908 77.981c-11.97 7.46-23.278 14.512-40.03 11.912-11.86-1.839-18.922-7.325-26.4-13.137-5.801-4.506-11.8-9.168-20.43-12.527-4.012-1.57-7.86-2.229-11.545-2.229" fill="#FEFEFE"/>
        <path d="M-115 61c-9.056 0-17.12 4.501-25.665 9.912-24.351 15.418-43.145 17.836-54.351 6.993L-196 79.15c6.944 6.717 16.453 8.707 28.262 5.907 8.202-1.943 17.561-6.219 27.813-12.71 11.397-7.216 21.9-12.78 35.017-7.737 8.456 3.233 14.327 7.924 20.002 12.464 6.823 5.456 13.268 10.61 23.657 13.254 17.938 4.565 29.954-3.616 42.675-12.278 8.088-5.509 16.452-11.204 26.656-13.582 13.446-3.133 22.513 3.484 32.114 10.494 8.499 6.207 17.292 12.62 29.448 12.057 10.25-.478 18.422-4.955 26.328-9.285 11.503-6.3 22.365-12.247 37.913-4.238 4.547 2.342 8.697 4.841 12.709 7.257 14.875 8.96 27.724 16.698 47.082 6.18 3.79-2.069 7.286-4.088 10.668-6.04 18.403-10.63 31.702-18.309 54.583-11.261 5.311 1.66 10.459 4.684 15.437 7.61 9.273 5.451 18.864 11.088 29.873 8.086 10.4-2.794 17.574-6.003 25.168-9.404 5.929-2.653 12.058-5.4 20.402-8.318 10.722-3.756 19.968 2.095 29.761 8.285 8.69 5.494 17.67 11.175 28.118 10.13 5.48-.548 11.994-3.677 18.892-6.988 12.94-6.218 26.321-12.646 33.202-1.817l1.22-.95c-7.58-11.929-21.528-5.228-35.017 1.25-6.783 3.258-13.191 6.337-18.43 6.86-9.977.997-18.755-4.554-27.247-9.92-9.637-6.095-19.601-12.397-30.95-8.425-8.397 2.938-14.555 5.696-20.513 8.36-7.541 3.378-14.663 6.566-24.96 9.333-10.457 2.848-19.375-2.392-28.82-7.94-5.048-2.967-10.265-6.036-15.734-7.744-23.451-7.223-36.967.582-55.677 11.387-3.373 1.948-6.861 3.962-10.635 6.024-18.666 10.14-30.6 2.953-45.71-6.15-4.031-2.427-8.202-4.94-12.793-7.301-16.197-8.347-27.372-2.226-39.202 4.252-7.766 4.254-15.797 8.653-25.73 9.114-11.68.553-20.263-5.722-28.564-11.782-9.434-6.888-19.187-14.012-33.243-10.734-10.459 2.437-18.933 8.21-27.13 13.791-12.453 8.482-24.217 16.49-41.561 12.076-10.093-2.568-16.42-7.627-23.117-12.983-5.765-4.608-11.725-9.375-20.385-12.684C-108.134 61.622-111.634 61-115 61" fill="#FEFEFE"/>
        <path d="M-112.658 60c-9.352 0-17.241 5.395-25.476 11.023l-.065.043c-5.573 3.813-16.691 10.59-28.52 13.162-11.801 2.564-21.32.392-28.297-6.458l-.984 1.258c7.344 7.208 17.29 9.51 29.563 6.843 12.06-2.622 23.357-9.506 29.015-13.376l.065-.043c10.625-7.264 20.662-14.126 33.94-8.95 8.43 3.266 14.232 8.324 19.844 13.214 5.764 5.025 11.725 10.218 20.428 13.34 17.144 6.147 29.218-3.435 40.893-12.702 8.186-6.497 16.65-13.217 26.923-14.684 14.348-2.052 23.627 4.437 33.452 11.312 8.068 5.645 16.408 11.48 27.83 12.346 11.197.844 19.975-4.282 28.465-9.244 11.137-6.506 21.656-12.654 36.622-4.745 4.162 2.196 7.962 4.464 11.64 6.657 15.715 9.38 28.129 16.789 47.99 5.376 1.15-.664 2.278-1.318 3.38-1.958 22.559-13.077 36.176-20.968 61.847-12.976 4.91 1.53 9.723 4.137 14.38 6.655 9.125 4.943 18.558 10.052 29.179 7.322 10.65-2.692 17.748-6.008 25.968-9.85 5.26-2.46 10.7-5.002 17.711-7.677 11.53-4.4 21.447 1.797 31.944 8.353 9.28 5.797 18.87 11.793 30.065 10.497 5.477-.633 11.962-3.745 18.826-7.04 13.984-6.713 28.443-13.655 35.756-.255L461 76.57c-7.986-14.634-23.729-7.079-37.619-.41-6.758 3.243-13.14 6.307-18.39 6.916-10.719 1.234-20.109-4.626-29.186-10.297-10.319-6.446-20.99-13.11-33.152-8.474-7.057 2.692-12.522 5.246-17.806 7.714-8.155 3.812-15.198 7.103-25.724 9.763-10.112 2.6-18.896-2.158-28.197-7.194-4.715-2.552-9.59-5.193-14.628-6.761-26.236-8.17-40.049-.164-62.933 13.1-1.103.64-2.23 1.292-3.378 1.956-19.166 11.016-30.677 4.144-46.606-5.363-3.691-2.204-7.51-4.484-11.704-6.697-15.636-8.259-26.474-1.926-37.949 4.78-8.307 4.853-16.896 9.876-27.674 9.055-11.047-.837-19.229-6.561-27.14-12.096C29.3 65.835 19.36 58.88 4.48 61.01c-10.64 1.52-19.26 8.363-27.596 14.98-11.9 9.443-23.138 18.364-39.576 12.471-8.449-3.028-14.041-7.904-19.965-13.065-5.708-4.974-11.61-10.119-20.271-13.477-3.443-1.34-6.666-1.919-9.73-1.919" fill="#FEFEFE"/>
        <path d="M7.033 59c-2.288 0-4.701.265-7.259.852-9.84 2.255-17.774 8.353-25.448 14.251-11.106 8.541-22.593 17.372-40.182 14.722-8.348-1.258-13.592-7.09-19.146-13.264-4.91-5.46-9.988-11.106-17.577-14.089-13.143-5.197-22.526 1.762-32.46 9.132-.59.44-1.186.881-1.782 1.32-17.405 12.815-43.354 22.181-59.195 6.396l-.984 1.273c16.465 16.408 43.147 6.889 60.992-6.251.597-.438 1.193-.881 1.786-1.321 9.616-7.135 18.7-13.873 31.154-8.95 7.273 2.859 12.227 8.37 17.02 13.7 5.737 6.377 11.157 12.4 19.994 13.73 18.156 2.736 29.88-6.277 41.22-14.996C-16.938 69.434-9.477 63.7.067 61.511c14.578-3.34 23.905 3.947 33.777 11.66 7.89 6.164 16.05 12.537 27.118 13.13 11.3.607 20.103-4.625 28.613-9.684 11.26-6.694 21.9-13.018 37.126-4.772 3.722 2.015 7.135 4.042 10.438 6 16.584 9.844 28.563 16.951 48.938 4.583 24.708-15.06 38.333-20.793 65.107-12.488 4.402 1.385 8.78 3.536 13.013 5.614 9.055 4.448 18.416 9.047 28.726 6.582 7.732-1.815 13.566-5.186 19.21-8.444 6.703-3.874 13.036-7.533 22.349-8.816 12.338-1.698 22.738 4 32.793 9.515 10.19 5.586 20.728 11.363 33.416 9.716 5.486-.713 11.957-3.83 18.808-7.132 14.983-7.217 30.474-14.678 38.191 1.397l1.309-.81c-8.36-17.423-25.214-9.306-40.083-2.145-6.748 3.251-13.124 6.322-18.394 7.008-12.259 1.59-22.6-4.078-32.598-9.558-10.248-5.62-20.848-11.431-33.623-9.67-9.573 1.32-16.32 5.217-22.846 8.987-5.555 3.21-11.3 6.526-18.838 8.295-9.845 2.353-18.58-1.935-27.827-6.478-4.279-2.102-8.708-4.275-13.208-5.691-27.3-8.468-41.14-2.655-66.209 12.626-19.679 11.948-31.366 5.01-47.542-4.589-3.315-1.969-6.743-4-10.487-6.03-15.9-8.611-26.86-2.097-38.463 4.801-8.331 4.954-16.947 10.064-27.849 9.492-10.643-.569-18.623-6.803-26.34-12.833C26.63 65.477 18.337 59 7.033 59" fill="#FEFEFE"/>
        <path d="M4.485 57c-2.834 0-5.86.45-9.119 1.469-8.67 2.713-15.833 8.835-22.761 14.753-11.235 9.598-22.851 19.524-41.232 14.952-7.145-1.78-11.756-7.323-16.636-13.193-4.656-5.6-9.469-11.393-16.82-14.24-12.523-4.873-21.521 2.22-30.223 9.08a276.88 276.88 0 0 1-3.042 2.375c-18.294 14.038-45.396 21.875-61.665 5.914l-.987 1.249c16.873 16.552 44.744 8.6 63.499-5.792 1.027-.787 2.045-1.591 3.059-2.388 8.778-6.92 17.07-13.457 28.867-8.866 6.999 2.71 11.686 8.35 16.217 13.8 5.044 6.066 9.806 11.793 17.406 13.686 19.06 4.741 30.959-5.424 42.464-15.256 6.817-5.823 13.864-11.847 22.26-14.471 15.126-4.73 24.682 3.146 34.797 11.485 7.549 6.225 15.355 12.66 25.75 13.73 11.802 1.215 20.895-4.259 29.684-9.553C97.184 69 107.746 62.636 122.86 70.78c3.24 1.744 6.237 3.464 9.131 5.129 16.907 9.713 29.121 16.732 50.083 3.71 25.208-15.708 38.59-17.703 65.089-9.703 3.819 1.17 7.671 2.804 11.396 4.383 9.088 3.851 18.484 7.832 28.583 5.698 7.756-1.61 13.674-4.966 19.399-8.213 5.937-3.368 12.076-6.851 20.284-8.334 13.28-2.402 23.929 3.291 35.202 9.32 10.702 5.722 21.768 11.636 35.128 9.782 5.52-.765 12.012-3.818 18.883-7.05 15.982-7.514 32.508-15.282 40.623 3.038l1.339-.736c-8.738-19.727-26.696-11.283-42.544-3.833-6.772 3.184-13.172 6.191-18.487 6.93-12.923 1.797-23.786-4.011-34.295-9.63-10.987-5.876-22.347-11.948-36.088-9.465-8.437 1.526-14.682 5.07-20.723 8.495-5.629 3.194-11.45 6.495-18.996 8.06-9.69 2.05-18.885-1.85-27.777-5.617-3.759-1.593-7.643-3.242-11.534-4.433-26.967-8.141-40.58-6.115-66.208 9.856-20.262 12.584-31.565 6.091-48.671-3.737-2.905-1.67-5.91-3.397-9.168-5.15-15.801-8.512-26.689-1.955-38.216 4.99C76.7 79.445 67.815 84.8 56.457 83.631c-9.98-1.026-17.616-7.323-25-13.411C23.549 63.698 15.424 57 4.485 57" fill="#FEFEFE"/>
        <path d="M1.338 54c-3.28 0-6.815.677-10.672 2.248-7.692 3.129-14.195 9.456-20.482 15.577-11.776 11.455-22.895 22.276-41.772 15.37-6.046-2.212-10.03-7.599-14.25-13.299-4.348-5.877-8.843-11.953-15.897-14.699-12-4.682-20.272 2.425-28.278 9.3-1.29 1.11-2.622 2.256-3.958 3.343-15.333 12.475-45.043 24.243-64.04 5.537l-.989 1.25c8.432 8.302 19.998 11.567 33.449 9.449 11.156-1.758 22.987-7.185 32.458-14.89 1.352-1.1 2.695-2.254 3.992-3.367 8.044-6.911 15.64-13.437 26.875-9.049 6.66 2.593 11.02 8.487 15.24 14.187 4.167 5.633 8.477 11.46 14.935 13.82 19.682 7.201 31.645-4.438 43.214-15.697 6.188-6.021 12.583-12.245 20.014-15.269 15.55-6.327 25.29 2.33 35.6 11.491 7.238 6.433 14.723 13.083 24.515 14.589 12.262 1.889 21.61-3.933 30.652-9.562 11.1-6.91 21.586-13.44 36.587-5.25 2.702 1.475 5.229 2.914 7.673 4.305 17.903 10.19 29.73 16.92 51.29 2.978 25.409-16.473 39.308-14.823 64.968-7.134 3.016.914 6.094 2.037 9.073 3.122 9.332 3.404 18.983 6.925 29.088 5.053 7.782-1.415 13.793-4.857 19.608-8.187 5.419-3.1 11.02-6.308 18.141-7.953 14.189-3.277 25.555 2.799 37.586 9.234 11.197 5.987 22.765 12.175 36.756 10.083 5.558-.83 12.076-3.885 18.975-7.12 16.944-7.938 34.464-16.15 42.954 4.736l1.357-.687c-9.088-22.362-28.107-13.447-44.887-5.583-6.805 3.189-13.234 6.203-18.597 7.005-13.542 2.023-24.915-4.056-35.912-9.935-11.728-6.27-23.855-12.753-38.533-9.363-7.32 1.69-13.014 4.95-18.52 8.101-5.976 3.421-11.619 6.65-19.169 8.025-9.746 1.802-19.221-1.65-28.384-4.992-2.996-1.091-6.094-2.221-9.145-3.148-26.083-7.814-40.216-9.485-66.107 7.302-20.859 13.49-31.776 7.275-49.865-3.021-2.449-1.394-4.98-2.835-7.694-4.317-15.702-8.572-27.022-1.525-37.971 5.291-8.825 5.496-17.954 11.175-29.722 9.368-9.384-1.444-16.707-7.95-23.79-14.245C19.93 61.09 11.951 54 1.338 54" fill="#FEFEFE"/>
        <path d="M-.772 52c-3.65 0-7.606.95-11.97 3.195-6.897 3.547-12.872 10.248-18.652 16.728-11.774 13.208-22.897 25.679-41.955 15.931-5.1-2.61-8.493-7.945-12.085-13.591-3.98-6.261-8.096-12.734-14.804-15.392-11.58-4.597-19.231 2.697-26.634 9.748-1.5 1.43-3.052 2.91-4.622 4.28-18.843 16.435-48.876 22.885-66.517 5.237L-199 79.4c11.179 11.186 25.095 11.894 34.805 10.511 11.873-1.686 24.122-7.398 33.612-15.674 1.595-1.392 3.16-2.884 4.673-4.324 7.406-7.058 14.401-13.725 25.177-9.447 6.267 2.48 10.243 8.735 14.088 14.782 3.548 5.581 7.217 11.349 12.681 14.146 19.993 10.228 32.007-3.244 43.622-16.27 5.686-6.377 11.564-12.969 18.217-16.392C3.74 48.572 13.66 58.188 24.164 68.368c6.983 6.77 14.208 13.77 23.48 15.698 12.714 2.646 22.322-3.62 31.614-9.677 11.055-7.206 21.5-14.014 36.428-5.654 2.12 1.188 4.137 2.345 6.072 3.453 19.016 10.909 30.493 17.493 52.73 2.35 24.61-16.782 37.697-12.836 63.769-4.979l1.18.355c1.572.476 3.157.976 4.75 1.48 10.25 3.23 20.854 6.572 31.646 4.876 7.83-1.215 13.96-4.835 19.887-8.336 4.868-2.877 9.905-5.851 15.994-7.622 15.072-4.383 27.189 2.22 40.017 9.21 11.717 6.383 23.831 12.985 38.445 10.603 5.628-.898 12.208-4.016 19.178-7.315 17.901-8.475 36.408-17.24 45.269 6.555l1.377-.656c-9.44-25.348-29.512-15.844-47.22-7.459-6.878 3.258-13.374 6.334-18.816 7.201-14.16 2.311-26.07-4.179-37.584-10.452-12.508-6.815-25.442-13.86-41.038-9.325-6.257 1.82-11.369 4.84-16.312 7.76-6.081 3.594-11.827 6.986-19.402 8.162-10.491 1.644-20.936-1.648-31.041-4.833a456.68 456.68 0 0 0-4.767-1.482l-1.18-.357c-25.645-7.729-39.773-11.986-64.922 5.165-21.527 14.66-32.098 8.596-51.285-2.408a648.722 648.722 0 0 0-6.084-3.46c-15.643-8.76-26.926-1.409-37.837 5.703-9.058 5.906-18.425 12.012-30.597 9.48-8.877-1.848-15.945-8.698-22.782-15.32C17.45 59.635 9.572 52.001-.772 52" fill="#FEFEFE"/>
        <g transform="translate(-200 49)">
          <mask id="h" fill="#fff">
            <use xlink:href="#g"/>
          </mask>
          <path d="M195.68.832c-3.946 0-8.239 1.235-13.01 4.2-6.231 3.877-11.788 10.884-17.161 17.66-11.796 14.875-22.936 28.924-41.738 16.139-4.315-2.937-7.282-8.416-10.152-13.715-3.528-6.518-7.175-13.256-13.455-15.745-11.22-4.45-18.305 2.94-25.157 10.084-1.645 1.714-3.345 3.486-5.089 5.087C51.428 41.51 19.814 48.183.99 29.377l-.991 1.26C11.703 42.33 26.11 43.294 36.139 42.042c12.558-1.566 25.215-7.469 34.72-16.192 1.782-1.634 3.5-3.426 5.161-5.16 6.828-7.117 13.277-13.838 23.65-9.73 5.778 2.29 9.128 8.482 12.676 15.033 2.962 5.474 6.027 11.132 10.655 14.282 19.859 13.504 31.937-1.729 43.62-16.459 5.29-6.672 10.76-13.57 16.77-17.305 16.032-9.97 26.118.482 36.795 11.543 6.767 7.012 13.764 14.263 22.576 16.553 13.12 3.409 22.967-3.198 32.491-9.585 11.02-7.391 21.427-14.374 36.288-5.985 1.48.836 2.909 1.651 4.293 2.44 20.223 11.54 31.36 17.895 54.291 1.758 21.99-15.477 34.698-11.466 55.748-4.82 2.901.915 5.902 1.862 9.119 2.818 8.82 2.625 22 5.932 34.594 4.402 7.882-.96 13.856-4.576 20.18-8.406 4.276-2.59 8.699-5.268 13.804-7.077 15.892-5.636 28.79 1.428 42.448 8.907 12.225 6.694 24.862 13.616 40.056 11.045 5.68-.964 12.303-4.082 19.314-7.387 12.625-5.946 25.678-12.095 35.757-7.297 5.159 2.458 9.032 7.554 11.841 15.582l1.387-.62c-2.964-8.469-7.102-13.87-12.647-16.514-10.655-5.074-24.605 1.497-36.914 7.295-6.922 3.264-13.463 6.343-18.96 7.273-14.735 2.496-27.163-4.31-39.183-10.893-13.316-7.292-27.087-14.833-43.545-8.999-5.24 1.857-9.726 4.574-14.063 7.2-6.193 3.75-12.042 7.293-19.634 8.215-12.348 1.504-25.35-1.765-34.054-4.353-3.208-.954-6.203-1.9-9.1-2.813-20.71-6.537-34.389-10.856-56.939 5.014-22.217 15.633-32.445 9.796-52.827-1.833a741.964 741.964 0 0 0-4.298-2.443c-15.59-8.8-26.838-1.254-37.718 6.043-9.27 6.218-18.857 12.648-31.394 9.392-8.429-2.191-15.278-9.288-21.9-16.151C213.576 8.919 205.77.832 195.68.832" fill="#FEFEFE" mask="url(#h)"/>
        </g>
      </g>
    </g>
    <g fill="#FEFEFE">
      <path d="M59.287 74.336l-1.722-4.74a326.607 326.607 0 0 1-1.118-3.349h-.066c-.19.727-.508 1.673-1.147 3.349l-1.725 4.74h5.778zm-4.213-12.86h2.587l8.33 20.917h-3.61l-2.072-5.34h-7.79l-2.009 5.34H47l8.074-20.918zM74.002 80.076c3.029 0 4.61-2.023 4.61-5.12 0-3.444-1.936-5.025-4.804-5.025-.741 0-1.386.095-2.031.285v9.383a5.102 5.102 0 0 0 2.225.477zM68.425 68.13c1.642-.57 3.545-.949 5.512-.949 5.255 0 8.122 2.973 8.122 7.808 0 4.677-3.19 7.837-7.831 7.837-.871 0-1.71-.158-2.451-.411V90h-3.352V68.129zM88.747 70.397h-4.74v-2.741h13.634l-.935 2.741h-4.608v11.996h-3.35zM108.32 83.232c-2.254 5.98-4.734 6.768-7.444 6.768-1.241 0-2.287-.22-3.235-.63l.85-2.61c.686.314 1.402.535 2.255.535 1.827 0 3.297-1.197 4.503-4.784l-6.921-14.855h3.657l4.803 11.016h.063l3.82-11.016h3.526l-5.876 15.576zM122.209 80.076c3.029 0 4.609-2.023 4.609-5.12 0-3.444-1.935-5.025-4.803-5.025-.742 0-1.387.095-2.032.285v9.383a5.102 5.102 0 0 0 2.226.477zm-5.577-11.947c1.645-.57 3.545-.949 5.512-.949 5.254 0 8.122 2.973 8.122 7.808 0 4.677-3.19 7.837-7.832 7.837-.87 0-1.709-.158-2.45-.411V90h-3.352V68.129zM151.318 74.336l-1.722-4.74a326.603 326.603 0 0 1-1.118-3.349h-.066c-.19.727-.509 1.673-1.147 3.349l-1.725 4.74h5.778zm-4.213-12.86h2.587l8.33 20.917h-3.61l-2.072-5.34h-7.79l-2.009 5.34h-3.51l8.074-20.918zM166.033 80.076c3.029 0 4.61-2.023 4.61-5.12 0-3.444-1.936-5.025-4.804-5.025-.741 0-1.386.095-2.032.285v9.383a5.102 5.102 0 0 0 2.226.477zm-5.577-11.947c1.642-.57 3.545-.949 5.512-.949 5.255 0 8.122 2.973 8.122 7.808 0 4.677-3.19 7.837-7.831 7.837-.871 0-1.71-.158-2.452-.411V90h-3.35V68.129zM180.778 70.397h-4.74v-2.741h13.634l-.935 2.741h-4.608v11.996h-3.351zM201.728 65.639h-2.6L200.991 61h3.719l-2.983 4.639zm-9.621 1.83h3.27v7.257c0 1.2-.062 2.242-.126 3.155h.064a65.823 65.823 0 0 1 2.055-3.123l5.163-7.288h3.208v14.923h-3.27v-7.256c0-1.2.033-2.24.13-3.155h-.097a52.936 52.936 0 0 1-2.023 3.123l-5.166 7.288h-3.208V67.47zM210.61 61.475h11.687l-.98 2.825h-7.29v18.093h-3.417zM230.567 75.516c-1.083.032-1.846.19-2.42.508-.7.38-1.05 1.046-1.05 1.9 0 1.427.955 2.315 2.451 2.315 1.525 0 2.671-.888 3.279-1.427V75.42l-2.26.095zm2.482 5.516c-1.114 1.044-2.517 1.837-4.392 1.837-2.83 0-4.9-1.871-4.9-4.755 0-1.995.987-3.296 2.515-4.057 1.048-.536 2.321-.73 3.849-.793l2.706-.092v-.634c0-1.967-1.242-2.791-3.024-2.791-1.592 0-2.958.507-4.01 1.11l-1.144-2.186a11.28 11.28 0 0 1 5.66-1.49c3.724 0 5.825 1.712 5.825 5.357v5.77c0 2.153.061 3.45.284 4.244h-2.83l-.539-1.52zM239.34 75.167c0-4.564 3.334-7.987 7.932-7.987 1.812 0 3.173.476 4.048.984v2.82c-1.07-.698-2.236-1.11-3.724-1.11-2.978 0-4.792 2.217-4.792 5.198 0 3.264 1.814 5.104 4.598 5.104 1.49 0 2.56-.444 3.626-1.015l.972 2.28c-1.164.794-3.043 1.428-5.052 1.428-4.89 0-7.608-3.391-7.608-7.702"/>
    </g>
    <path stroke="#FFF" d="M63.16 224.617H1V1h295.62v223.617h-60.19"/>
  </g>
</svg>