<svg width="38" height="64" viewBox="0 0 38 64" xmlns="http://www.w3.org/2000/svg"><title>Fill 1</title><path d="M13.812 29.692l6.02-23.334 10.953 42.438h-9.588l-7.385-19.104zm4.168 19.104h-9.1l3.643-14.114 5.457 14.114zM21.225 0H18.44l-6.447 24.988-5.313-13.74c.907-.962 1.261-2.378.756-3.69a3.515 3.515 0 0 0-1.866-1.96 3.51 3.51 0 0 0-1.172-.26L2.8 1.202 0 2.285l1.598 4.131C.691 7.375.337 8.794.842 10.104a3.515 3.515 0 0 0 1.866 1.959c.375.164.773.216 1.168.247l6.829 17.668-8.622 33.417-.158.605h3.034l3.148-12.2h23.451L34.706 64h3.035L21.317.364 21.225 0z" fill="#FEFEFE" fill-rule="evenodd"/></svg>