<svg width="56" height="56" viewBox="0 0 56 56" xmlns="http://www.w3.org/2000/svg"><title>Combined Shape</title><path d="M28 56c15.464 0 28-12.536 28-28S43.464 0 28 0 0 12.536 0 28s12.536 28 28 28zm1.549-18.008c.812 0 1.144-.531 1.135-1.2-.042-2.515.949-3.866 2.744-2.105 1.986 1.954 2.394 3.305 4.806 3.305h4.265c3.356 0 .366-3.313-1.998-5.471-2.25-2.054-2.357-2.1-.422-4.572 2.408-3.066 5.546-7.015 2.77-7.015H37.54c-1.033 0-1.105.59-1.471 1.439-1.327 3.079-3.85 7.065-4.806 6.454-1.004-.636-.545-2.794-.468-6.538.021-.99.017-1.669-1.518-2.02-4.198-.958-7.83.929-6.346 1.2 2.093.381 1.893 4.485 1.404 6.409-.851 3.35-4.045-2.656-5.38-5.647-.32-.72-.417-1.297-1.566-1.297h-4.342c-.834 0-1.246.377-.953 1.138.294.765 3.65 8.152 7.622 12.369 3.674 3.902 7.307 3.55 9.833 3.55z" fill="#FFF" fill-rule="evenodd"/></svg>