<svg width="25" height="14" viewBox="0 0 25 14" xmlns="http://www.w3.org/2000/svg"><title>Fill 4</title><path d="M14.038 13.901c.616 0 .868-.41.862-.927-.033-1.943.719-2.987 2.08-1.626 1.507 1.51 1.817 2.553 3.646 2.553h3.236c2.545 0 .277-2.56-1.516-4.227-1.707-1.587-1.788-1.622-.32-3.532 1.826-2.37 4.207-5.42 2.1-5.42H20.1c-.784 0-.839.455-1.116 1.112-1.007 2.378-2.92 5.458-3.646 4.986-.761-.491-.413-2.159-.355-5.051.017-.766.013-1.29-1.151-1.561-3.184-.74-5.94.717-4.814.927 1.588.295 1.436 3.465 1.065 4.952-.645 2.588-3.068-2.053-4.081-4.363C5.76 1.168 5.686.722 4.815.722H1.52c-.632 0-.945.29-.723.879.223.591 2.768 6.299 5.781 9.556 2.788 3.016 5.543 2.744 7.46 2.744" fill="#FEFEFE" fill-rule="evenodd"/></svg>